<svg height="512" viewBox="0 0 512 512" width="512" xmlns="http://www.w3.org/2000/svg"><g id="Filled_outline" data-name="Filled outline"><path d="m440 144-48-24 96-96-216 88 64 32-264 224 48 24-96 96 216-88-64-32z" fill="#ffba40"/><path d="m360 280a33.941 33.941 0 0 0 0-48l-32-32-128 128 32 32a33.941 33.941 0 0 0 48 0l96 128h112v-112z" fill="#a45bad"/><path d="m336 208-48-48a22.627 22.627 0 0 0 -32 0 22.518 22.518 0 0 0 -6.323 12.292 16.133 16.133 0 0 1 -13.385 13.385 22.518 22.518 0 0 0 -12.292 6.323 22.518 22.518 0 0 0 -6.323 12.292 16.133 16.133 0 0 1 -13.385 13.385 22.518 22.518 0 0 0 -12.292 6.323 22.518 22.518 0 0 0 -6.323 12.292 16.133 16.133 0 0 1 -13.385 13.385 22.518 22.518 0 0 0 -12.292 6.323 22.628 22.628 0 0 0 0 32l48 48a22.627 22.627 0 0 0 32 0 22.628 22.628 0 0 0 0-32 22.627 22.627 0 0 0 32 0 22.628 22.628 0 0 0 0-32 22.627 22.627 0 0 0 32 0 22.628 22.628 0 0 0 0-32 22.627 22.627 0 0 0 32 0 22.628 22.628 0 0 0 0-32z" fill="#c378cb"/><path d="m337.373 238.627-34.746 34.746a22.627 22.627 0 0 0 -6.627 16 22.628 22.628 0 0 0 22.627 22.627 22.627 22.627 0 0 0 16-6.627l34.746-34.746a22.627 22.627 0 0 0 6.627-16 22.628 22.628 0 0 0 -22.627-22.627 22.627 22.627 0 0 0 -16 6.627z" fill="#c378cb"/><path d="m492.8 369.6-109.92-82.44-9.6 12.8 106.72 80.04v100h-100l-89.437-119.249 19.094-19.094-11.314-11.314-24 24a25.948 25.948 0 0 1 -36.686 0l-4.965-4.965a30.628 30.628 0 0 0 21.889-30.778q.707.033 1.419.032a30.6 30.6 0 0 0 30.581-32.032q.707.033 1.419.032h.126c-.08.909-.126 1.825-.126 2.749a30.627 30.627 0 0 0 52.284 21.656l34.746-34.745a30.617 30.617 0 0 0 -8.987-49.529c-.132-.136-5.132-5.159-5.132-5.159l84.265-71.5a8 8 0 0 0 -1.6-13.255l-38.073-19.036 88.152-88.152a8 8 0 0 0 -8.676-13.066l-216 88a8 8 0 0 0 -.559 14.564l53.166 26.583-19.762 16.768-8.167-8.167a30.631 30.631 0 0 0 -51.874 16.645 8.145 8.145 0 0 1 -6.795 6.8 30.637 30.637 0 0 0 -25.205 25.2 8.145 8.145 0 0 1 -6.795 6.8 30.637 30.637 0 0 0 -25.205 25.2 8.145 8.145 0 0 1 -6.795 6.8 30.629 30.629 0 0 0 -16.645 51.873l40 40 4.483 4.483-28 23.76a8 8 0 0 0 1.6 13.255l48.2 24.1-162.957 66.386 67.988-67.988a8 8 0 0 0 -2.079-12.812l-37.164-18.582 60.976-51.731-10.352-12.2-70.214 59.568a8 8 0 0 0 1.6 13.256l38.076 19.035-88.157 88.152a8 8 0 0 0 8.676 13.066l216-88a8 8 0 0 0 .559-14.564l-53.166-26.583 19.763-16.773 16.168 16.168a42.014 42.014 0 0 0 52.191 5.722l91.066 121.421a8 8 0 0 0 6.4 3.2h112a8 8 0 0 0 8-8v-112a8 8 0 0 0 -3.2-6.4zm-129.084-104.629-34.746 34.745a14.628 14.628 0 0 1 -20.686-20.687l34.746-34.745a14.628 14.628 0 0 1 20.686 20.687zm-22.539-114.871a8 8 0 0 0 -1.6-13.255l-48.2-24.1 162.954-66.39-67.988 67.988a8 8 0 0 0 2.079 12.812l37.164 18.582-77.6 65.836a30.486 30.486 0 0 0 -6.328-9.23l-28.481-28.481zm-175.52 132.243a14.629 14.629 0 0 1 7.943-24.773 24.241 24.241 0 0 0 19.969-19.97 14.635 14.635 0 0 1 12.031-12.03 24.241 24.241 0 0 0 19.969-19.97 14.635 14.635 0 0 1 12.031-12.03 24.241 24.241 0 0 0 19.969-19.97 14.629 14.629 0 0 1 24.774-7.94l48 48a14.627 14.627 0 0 1 -20.686 20.686l-32-32-11.314 11.314 32 32a14.646 14.646 0 0 1 0 20.682l-.009.009a14.628 14.628 0 0 1 -20.681 0l-32-32-11.314 11.314 32 32a14.627 14.627 0 0 1 -20.686 20.686l-32-32-11.314 11.314 32 32a14.627 14.627 0 0 1 -20.686 20.686z"/><path d="m360 349.594h16v108.812h-16z" transform="matrix(.809 -.588 .588 .809 -167.24 293.735)"/><path d="m171.125 160.917h16v36.416h-16z" transform="matrix(.707 -.707 .707 .707 -74.196 179.125)"/><path d="m116.625 86.264h16v76.721h-16z" transform="matrix(.707 -.707 .707 .707 -51.621 124.625)"/><path d="m65.75 59.962h16v27.577h-16z" transform="matrix(.671 -.741 .741 .671 -30.421 78.892)"/><path d="m448 276.461h16v66.258h-16z" transform="matrix(.259 -.966 .966 .259 38.939 669.926)"/><path d="m174.794 455.184h51.382v16h-51.382z" transform="matrix(.259 -.966 .966 .259 -298.808 536.945)"/><path d="m383.06 206.563h55.172v16h-55.172z" transform="matrix(.966 -.259 .259 .966 -41.541 113.596)"/><path d="m460.712 189.428h27.761v16h-27.761z" transform="matrix(.966 -.259 .259 .966 -34.927 129.559)"/><path d="m303.22 435.256h16v53.658h-16z" transform="matrix(.966 -.259 .259 .966 -108.991 96.294)"/><path d="m100.833 171.878h16v89.378h-16z" transform="matrix(.259 -.966 .966 .259 -128.522 265.64)"/><path d="m27.769 184.805h16v24.369h-16z" transform="matrix(.259 -.966 .966 .259 -163.766 180.557)"/><path d="m286.887 40h49.693v16h-49.693z" transform="matrix(.259 -.966 .966 .259 184.696 336.692)"/><path d="m69.178 291.435h49.442v16h-49.442z" transform="matrix(.966 -.259 .259 .966 -74.3 34.506)"/><path d="m23.587 307.027h24.243v16h-24.243z" transform="matrix(.966 -.259 .259 .966 -80.308 19.972)"/><path d="m209.415 70.589h16v82.822h-16z" transform="matrix(.966 -.259 .259 .966 -21.578 60.08)"/><path d="m190.123 23.436h16v33.129h-16z" transform="matrix(.966 -.259 .259 .966 -3.602 52.64)"/></g></svg>