<svg id="Layer_1" enable-background="new 0 0 512 512" height="512" viewBox="0 0 512 512" width="512" xmlns="http://www.w3.org/2000/svg"><g><g clip-rule="evenodd" fill-rule="evenodd"><path d="m185.226 204.383c-6.068.346-12.801 1.17-20.329 2.566-20.448 3.791-41.142 5.484-50.983-1.53-16.969-12.095-11.885-38.678 8.923-40.53 16.305-1.451 19.984-23.658.184-28.963s-64.566 6.232-64.566 54.419c0 48.188 52.479 67.818 88.73 62.031 1.484-.237 2.95-.458 4.398-.662 15.092-7.077 28.627-5.105 42.27-4.961-3.425-12.924-8.506-27.553-8.627-42.37z" fill="#ff9eb1"/><path d="m193.853 246.753c-13.643-.144-27.178-2.117-42.27 4.961-11.293 5.296-23.458 15.659-37.192 35.646-11.778 17.14-25.214 32.969-37.132 34.968-20.551 3.447-35.753-18.946-22.35-34.968 10.503-12.556-2.597-30.86-20.349-20.61-17.752 10.249-41.248 50.062-7.174 84.136 34.074 34.073 85.062 10.845 106.605-18.879 16.624-22.939 32.816-37.534 48.569-36.96 5.204-7.448 10.355-13.878 13.1-21.744 2.551-7.311.882-16.405-1.807-26.55z" fill="#ff7d97"/><path d="m316.34 273.302c-7.819-22.403 24.002-61.569 3.339-96.374 7.583-3.113 13.596-8.203 14.57-16.724.893-7.816-1.392-12.239-4.626-15.43 7.156-12.679 10.916-26.992 10.916-41.551 0-46.69-37.85-84.54-84.539-84.54s-84.539 37.85-84.539 84.54c0 14.559 3.76 28.871 10.916 41.551-3.234 3.19-5.519 7.614-4.626 15.43.973 8.521 6.987 13.611 14.57 16.724-20.663 34.805 11.158 73.971 3.339 96.374-8.227 23.569-38.042 34.238-26.207 98.065 4.344 23.428 6.282 47.136-1.753 58.41-13.857 19.441-44.313 13.617-46.435-10.222-1.663-18.68-27.104-22.896-33.182-.211-6.078 22.684 4.439 73.972 62.348 73.972 57.91 0 77.697-60.125 71.068-101.657-7.383-46.254-1.428-77.708 34.502-77.708s41.884 31.454 34.502 77.708c-6.629 41.532 13.158 101.657 71.068 101.657 57.909 0 68.426-51.287 62.348-73.972s-31.52-18.469-33.182.211c-2.122 23.839-32.578 29.663-46.435 10.222-8.035-11.274-6.097-34.982-1.753-58.41 11.833-63.827-17.982-74.496-26.209-98.065z" fill="#ff5d7d"/><path d="m326.773 204.383c6.068.346 12.801 1.17 20.329 2.566 20.448 3.791 41.142 5.484 50.983-1.53 16.969-12.095 11.885-38.678-8.923-40.53-16.305-1.451-19.984-23.658-.184-28.963s64.566 6.232 64.566 54.419c0 48.188-52.479 67.818-88.73 62.031-1.484-.237-2.95-.458-4.398-.662-15.092-7.077-28.627-5.105-42.27-4.961 3.426-12.924 8.506-27.553 8.627-42.37z" fill="#ff9eb1"/><path d="m318.146 246.753c13.643-.144 27.178-2.117 42.27 4.961 11.293 5.296 23.458 15.659 37.192 35.646 11.778 17.14 25.214 32.969 37.132 34.968 20.551 3.447 35.753-18.946 22.35-34.968-10.503-12.556 2.597-30.86 20.349-20.61 17.752 10.249 41.248 50.062 7.174 84.136-34.073 34.073-85.062 10.845-106.604-18.879-16.624-22.939-32.815-37.534-48.569-36.96-5.204-7.448-10.355-13.878-13.1-21.744-2.551-7.311-.882-16.405 1.806-26.55z" fill="#ff7d97"/></g><g><path d="m511.479 304.399c-2.893-21.969-17.081-39.406-29.04-46.31-13.99-8.078-26.92-3.764-33.525 4.096-7.648 9.102-7.44 22.093.506 31.591 4.271 5.106 2.615 9.875 1.247 12.262-2.126 3.712-7.147 7.623-14.272 6.427-3.969-.666-13.214-5.548-30.545-30.77-5.192-7.556-10.225-13.861-15.114-19.13 18.314-2.351 36.01-9.63 49.066-20.768 15.532-13.25 23.742-31.042 23.742-51.453 0-27.727-12.982-43.509-23.873-51.866-17.579-13.489-39.941-15.788-53.281-12.213-15.605 4.181-21.696 16.373-20.809 26.601 1.027 11.844 10.36 20.884 22.696 21.982 6.63.59 8.831 5.133 9.552 7.789 1.122 4.129.341 10.44-5.547 14.637-3.277 2.336-13.265 5.421-43.356-.159-4.379-.812-8.598-1.437-12.661-1.912-.588-4.708-1.717-9.452-3.535-14.187 6.684-4.945 10.522-11.512 11.455-19.677.867-7.583-.5-13.206-2.821-17.493 6.016-12.656 9.176-26.582 9.176-40.623 0-52.129-42.41-94.54-94.539-94.54s-94.539 42.411-94.539 94.54c0 14.038 3.161 27.965 9.176 40.621-2.322 4.288-3.688 9.911-2.822 17.495.933 8.166 4.772 14.734 11.457 19.679-1.817 4.735-2.943 9.477-3.53 14.185-4.066.476-8.287 1.101-12.668 1.913-30.09 5.581-40.079 2.494-43.355.16-5.889-4.198-6.669-10.509-5.548-14.638.722-2.655 2.922-7.198 9.553-7.789 12.335-1.098 21.668-10.138 22.695-21.982.887-10.228-5.204-22.42-20.81-26.601-13.337-3.574-35.701-1.276-53.281 12.213-10.891 8.357-23.873 24.139-23.873 51.866 0 20.412 8.21 38.204 23.742 51.453 13.057 11.138 30.751 18.418 49.066 20.768-4.888 5.269-9.922 11.574-15.114 19.13-17.331 25.221-26.576 30.104-30.545 30.77-7.133 1.194-12.146-2.714-14.272-6.427-1.368-2.388-3.025-7.156 1.247-12.262 7.946-9.499 8.154-22.489.506-31.591-6.605-7.86-19.533-12.174-33.525-4.096-11.958 6.904-26.147 24.341-29.04 46.31-1.792 13.61.188 33.95 19.794 53.557 13.039 13.039 29.303 19.828 47.33 19.828 1.927 0 3.875-.078 5.84-.234 25.683-2.036 52.611-17.61 68.603-39.677 6.666-9.198 12.887-16.474 18.641-21.821-4.198 13.698-5.815 31.758-1.108 57.138 6.49 35.001 2.746 46.841-.063 50.783-5.244 7.358-13.155 8.326-18.338 6.917-2.744-.745-9.21-3.428-9.993-12.221-1.194-13.417-11.006-23.565-23.859-24.679-11.107-.965-24.371 5.703-28.943 22.766-4.145 15.471-1.855 40.919 12.967 60.235 9.215 12.01 26.938 26.325 59.04 26.325 26.311 0 48.144-11.063 63.141-31.995 3.217-4.489 2.185-10.736-2.305-13.953-4.488-3.217-10.736-2.186-13.953 2.305-11.241 15.688-27.014 23.643-46.883 23.643-19.228 0-33.753-6.225-43.173-18.5-11.423-14.886-11.949-33.802-9.516-42.883 1.428-5.326 4.394-8.318 7.896-8.018 2.364.205 5.267 2.037 5.667 6.527 1.296 14.568 10.75 25.967 24.671 29.749 14.992 4.071 30.64-1.663 39.867-14.609 8.493-11.917 9.586-32.9 3.442-66.038-7.759-41.845 3.283-57.319 13.961-72.285 4.468-6.262 9.088-12.737 11.854-20.662 4.207-12.054.363-25.673-3.708-40.092-4.496-15.927-9.122-32.331-3.758-47.469 3.591.886 7.495 1.59 11.722 2.102 5.782.7 7.719 3.079 8.952 5.545 1.751 3.505 5.284 5.532 8.953 5.532 1.502 0 3.027-.34 4.462-1.057 4.94-2.469 6.944-8.475 4.475-13.416-4.698-9.401-13.149-15.094-24.438-16.46-15.26-1.848-23.36-5.957-24.075-12.214-.668-5.841.823-6.868 5.762-10.268 5.372-3.698 14.362-9.887 12.435-23.903-.752-5.471-5.8-9.296-11.269-8.544-5.471.752-9.297 5.797-8.544 11.269.083.604.134 1.006.004 1.388-3.032-8.234-4.613-16.982-4.613-25.786 0-41.102 33.438-74.54 74.539-74.54s74.539 33.438 74.539 74.54c0 8.806-1.58 17.554-4.613 25.788-.13-.383-.08-.785.003-1.389.752-5.472-3.073-10.517-8.544-11.269-5.47-.75-10.517 3.073-11.269 8.544-1.927 14.016 7.063 20.206 12.435 23.903 4.939 3.4 6.43 4.427 5.762 10.268-.715 6.257-8.815 10.366-24.075 12.214-11.29 1.367-19.741 7.059-24.439 16.46-2.469 4.94-.465 10.947 4.475 13.416 1.436.717 2.96 1.057 4.462 1.057 3.669 0 7.202-2.027 8.953-5.532 1.232-2.467 3.17-4.846 8.952-5.545 4.228-.512 8.132-1.216 11.724-2.102 5.364 15.141.735 31.542-3.761 47.47-4.07 14.418-7.914 28.038-3.707 40.092 2.766 7.925 7.386 14.4 11.854 20.662 10.679 14.965 21.72 30.44 13.961 72.285-6.145 33.137-5.051 54.121 3.442 66.038 9.227 12.946 24.874 18.683 39.867 14.609 13.921-3.781 23.375-15.18 24.671-29.749.4-4.49 3.302-6.323 5.667-6.527 3.523-.301 6.469 2.691 7.896 8.018 2.433 9.082 1.907 27.997-9.516 42.883-9.419 12.276-23.945 18.5-43.173 18.5-17.929 0-32.588-6.527-43.57-19.401-16.82-19.717-20.971-49.706-17.623-70.68 5.869-36.767 2.889-60.588-9.376-74.966-8.105-9.501-19.88-14.318-35-14.318-14.694 0-26.244 4.56-34.327 13.552-11.134 12.386-15.022 32.692-11.885 62.077.586 5.492 5.507 9.475 11.005 8.882 5.492-.586 9.468-5.513 8.882-11.005-2.465-23.095-.153-38.769 6.872-46.584 4.187-4.658 10.55-6.922 19.453-6.922 9.124 0 15.595 2.387 19.784 7.298 7.956 9.326 9.585 29.121 4.842 58.834-4.969 31.132 3.728 65.208 22.157 86.812 14.745 17.285 35.073 26.421 58.786 26.421 32.102 0 49.825-14.315 59.04-26.325 14.822-19.316 17.112-44.765 12.967-60.235-4.572-17.064-17.832-23.733-28.943-22.766-12.854 1.114-22.665 11.263-23.859 24.679-.783 8.793-7.25 11.476-9.993 12.221-5.181 1.407-13.094.441-18.337-6.916-2.81-3.942-6.554-15.782-.064-50.783 4.706-25.38 3.09-43.44-1.108-57.138 5.754 5.347 11.976 12.623 18.641 21.821 15.992 22.066 42.92 37.641 68.603 39.677 1.966.156 3.913.234 5.84.234 18.025 0 34.291-6.79 47.33-19.828 19.609-19.611 21.588-39.95 19.796-53.561zm-443.024-114.054c0-15.716 5.399-27.827 16.048-35.999 11.537-8.853 27.123-11.122 35.93-8.762 4.003 1.073 6.269 3.149 6.06 5.555-.143 1.649-1.412 3.51-4.543 3.789-13.26 1.18-23.636 9.789-27.081 22.467-3.695 13.604 1.502 27.8 13.241 36.167 10.846 7.73 28.922 8.723 58.609 3.219 3.208-.595 6.312-1.083 9.308-1.474.987 7.354 2.747 14.449 4.571 21.098-10.038-.143-20.682.528-32.162 5.669-.939.14-1.874.274-2.827.427-17.516 2.795-42.994-1.042-60.433-15.919-11.095-9.465-16.721-21.657-16.721-36.237zm57.438 135.792c-10.408 14.361-31.139 29.664-53.99 31.476-14.535 1.155-27.137-3.49-37.446-13.799-11.113-11.113-15.859-23.496-14.107-36.804 1.898-14.417 11.314-27.042 19.21-31.601 3.59-2.072 6.661-2.205 8.213-.357 1.064 1.267 1.483 3.479-.535 5.891-8.542 10.211-9.791 23.636-3.261 35.036 7.007 12.232 20.721 18.596 34.936 16.211 13.137-2.204 26.621-14.283 43.72-39.167 25.591-37.243 43.14-37.135 63.273-36.475 1.097 5.421 1.475 10.125.311 13.458-1.788 5.121-5.133 9.861-9.016 15.305-16.259 2.03-32.693 15.139-51.308 40.826zm277.996-112.575c11.738-8.367 16.936-22.563 13.24-36.167-3.444-12.678-13.821-21.287-27.08-22.467-3.132-.279-4.4-2.14-4.543-3.789-.208-2.405 2.057-4.482 6.06-5.555 8.808-2.359 24.393-.091 35.93 8.762 10.649 8.171 16.048 20.283 16.048 35.999 0 14.58-5.626 26.772-16.722 36.237-17.439 14.877-42.917 18.716-60.433 15.919-.953-.152-1.887-.287-2.825-.426-11.481-5.143-22.126-5.814-32.164-5.67 1.825-6.651 3.587-13.745 4.574-21.097 2.994.391 6.098.879 9.305 1.474 29.688 5.504 47.763 4.511 58.61-3.22zm73.654 130.252c-10.309 10.31-22.91 14.95-37.446 13.799-22.851-1.812-43.582-17.114-53.99-31.476-18.615-25.688-35.047-38.799-51.309-40.827-3.884-5.444-7.229-10.183-9.016-15.304-1.164-3.333-.786-8.038.311-13.458 20.131-.661 37.682-.767 63.274 36.475 17.099 24.884 30.583 36.963 43.72 39.167 14.22 2.382 27.93-3.979 34.936-16.211 6.53-11.4 5.28-24.825-3.262-35.036-2.017-2.412-1.599-4.625-.534-5.891 1.553-1.849 4.624-1.715 8.213.357 7.896 4.559 17.312 17.183 19.21 31.601 1.752 13.308-2.994 25.691-14.107 36.804z"/><path d="m221.575 413.478h-.007c-5.523 0-9.996 4.477-9.996 10s4.48 10 10.003 10 10-4.477 10-10-4.477-10-10-10z"/><path d="m238.287 261.87c1.25 0 2.523-.237 3.753-.735 5.119-2.074 7.586-7.906 5.511-13.024l-2.128-5.25c-2.075-5.118-7.907-7.586-13.024-5.511-5.119 2.074-7.586 7.906-5.511 13.024l2.128 5.25c1.576 3.888 5.319 6.246 9.271 6.246z"/><path d="m273.712 261.87c3.952 0 7.695-2.359 9.271-6.247l2.128-5.25c2.075-5.118-.393-10.95-5.511-13.024-5.12-2.077-10.95.393-13.024 5.511l-2.128 5.25c-2.075 5.118.393 10.95 5.511 13.024 1.231.5 2.502.736 3.753.736z"/></g></g></svg>