<svg id="Capa_1" enable-background="new 0 0 512 512" height="512" viewBox="0 0 512 512" width="512" xmlns="http://www.w3.org/2000/svg"><path d="m354.5 194 80.882-112.121c16.279-22.525 9.508-54.186-14.561-68.082-24.069-13.896-54.874-3.93-66.241 21.431l-50.996 113.689z" fill="#a9e0ff"/><path d="m328.875 164.625 49.305-115.643c4.583-10.75 17.534-15.072 27.654-9.229 10.12 5.843 12.853 19.22 5.834 28.564l-75.668 100.808z" fill="#79c2f2"/><path d="m156.5 192.375-79.985-110.496c-16.279-22.525-9.508-54.186 14.561-68.082 24.069-13.896 54.874-3.93 66.241 21.431l52.683 117.397z" fill="#a9e0ff"/><path d="m183.333 165.167-49.617-116.185c-4.583-10.75-17.534-15.072-27.654-9.229-10.12 5.843-12.853 19.22-5.834 28.564l76.148 101.433z" fill="#79c2f2"/><path d="m382.779 233.492c-15.366-54.969-65.822-95.29-125.695-95.29-59.697 0-110.032 40.084-125.558 94.806z" fill="#e6f5ff"/><path d="m382.78 233.49-30.02-.06c-14.08-50.28-57.52-88.29-110.68-94.37 4.92-.57 9.93-.86 15-.86 59.88 0 110.33 40.32 125.7 95.29z" fill="#a9e0ff"/><path d="m355.5 504.5h-199c-27.614 0-50-22.386-50-50v-143h299v143c0 27.614-22.386 50-50 50z" fill="#94a1a8"/><path d="m405.5 321.5v133c0 27.61-22.39 50-50 50h-30c27.61 0 50-22.39 50-50v-133z" fill="#6b7887"/><path d="m405.5 321.5h-299c-8.284 0-15-6.716-15-15v-60h329v60c0 8.284-6.716 15-15 15z" fill="#c29ff4"/><path d="m420.5 266.5v40c0 8.28-6.72 15-15 15h-30c6.53 0 12.09-4.18 14.14-10 .56-1.57.86-3.25.86-5v-40z" fill="#a377e0"/><path d="m206.5 266.5h-40c-8.28 0-15 6.72-15 15v40c0 8.28 6.72 15 15 15h40c8.28 0 15-6.72 15-15v-40c0-8.28-6.72-15-15-15zm-7.5 40c0 4.14-3.36 7.5-7.5 7.5h-10c-4.14 0-7.5-3.36-7.5-7.5v-10c0-4.14 3.36-7.5 7.5-7.5h10c4.14 0 7.5 3.36 7.5 7.5z" fill="#ddd"/><path d="m221.5 281.5v40c0 8.28-6.72 15-15 15h-30c8.28 0 15-6.72 15-15v-7.5c4.14 0 7.5-3.36 7.5-7.5v-10c0-4.14-3.36-7.5-7.5-7.5v-7.5c0-8.28-6.72-15-15-15h30c8.28 0 15 6.72 15 15z" fill="#c4c4c4"/><path d="m487 266.5h-462c-9.665 0-17.5-7.835-17.5-17.5 0-9.665 7.835-17.5 17.5-17.5h462c9.665 0 17.5 7.835 17.5 17.5 0 9.665-7.835 17.5-17.5 17.5z" fill="#6b7887"/><path d="m504.5 249c0 4.83-1.96 9.2-5.13 12.37s-7.54 5.13-12.37 5.13h-30c4.83 0 9.2-1.96 12.37-5.13s5.13-7.54 5.13-12.37c0-9.66-7.84-17.5-17.5-17.5h30c9.66 0 17.5 7.84 17.5 17.5z" fill="#4d5960"/><path d="m487 223.99h-99.326c-4.498-13.106-11.035-25.496-19.229-36.698l73.016-101.031c9-12.454 12.318-28.213 9.105-43.239-3.214-15.026-12.689-28.049-25.996-35.732-13.306-7.682-29.323-9.375-43.941-4.646-14.619 4.729-26.608 15.484-32.894 29.505l-47.277 105.473c-13.834-4.572-28.415-6.93-43.374-6.93-15.673 0-30.925 2.599-45.341 7.61l-47.582-106.153c-6.285-14.021-18.273-24.775-32.893-29.505-14.621-4.73-30.637-3.037-43.943 4.646-13.307 7.683-22.781 20.707-25.995 35.732s.105 30.786 9.105 43.239l74.15 102.6c-7.663 10.786-13.806 22.631-18.095 35.128h-101.49c-13.785 0-25 11.215-25 25s11.215 25 25 25h59v32.5c0 9.778 6.271 18.114 15 21.21v82.958c0 4.142 3.358 7.5 7.5 7.5s7.5-3.358 7.5-7.5v-81.667h31.29c3.096 8.729 11.432 15 21.21 15h40c9.778 0 18.114-6.271 21.21-15h170.29v125.5c0 23.435-19.065 42.5-42.5 42.5h-199c-23.435 0-42.5-19.065-42.5-42.5v-8.833c0-4.142-3.358-7.5-7.5-7.5s-7.5 3.358-7.5 7.5v8.833c0 31.706 25.794 57.5 57.5 57.5h199c31.706 0 57.5-25.794 57.5-57.5v-126.79c8.729-3.096 15-11.432 15-21.21v-32.5h59c13.785 0 25-11.215 25-25s-11.215-25-25-25zm-125.577-185.705c4.552-10.155 13.235-17.943 23.823-21.369 10.585-3.425 22.187-2.199 31.824 3.365 9.638 5.564 16.5 14.997 18.827 25.879 2.328 10.882-.076 22.296-6.595 31.315l-70.698 97.822c-3.258-3.55-6.688-6.945-10.303-10.14l69.363-92.347c4.634-6.168 6.406-14.041 4.862-21.599-1.544-7.559-6.261-14.106-12.942-17.964-6.681-3.857-14.71-4.669-22.029-2.227-7.317 2.443-13.25 7.914-16.274 15.01l-44.211 103.706c-4.113-2.432-8.333-4.629-12.644-6.605zm-15.091 104.52 38.748-90.892c1.362-3.197 3.929-5.563 7.225-6.664 1.261-.421 2.547-.629 3.823-.629 2.062 0 4.098.544 5.957 1.618 3.01 1.738 5.051 4.57 5.746 7.976.695 3.405-.071 6.81-2.159 9.589zm-263.739-65.329c-6.518-9.02-8.922-20.434-6.595-31.315 2.328-10.882 9.19-20.315 18.827-25.879 9.638-5.564 21.238-6.79 31.825-3.365 10.588 3.426 19.271 11.214 23.823 21.369l47.38 105.702c-4.289 2.046-8.473 4.345-12.56 6.847l-44.678-104.804c-3.025-7.097-8.958-12.568-16.275-15.01s-15.346-1.63-22.028 2.227c-6.681 3.858-11.398 10.405-12.942 17.964s.228 15.432 4.861 21.6l70.284 93.571c-3.586 3.255-7.002 6.692-10.224 10.299zm82.97 65.326-59.339-79c-2.087-2.778-2.854-6.184-2.158-9.589.695-3.405 2.736-6.238 5.746-7.976 1.859-1.073 3.895-1.618 5.957-1.618 1.276 0 2.563.208 3.823.629 3.296 1.1 5.862 3.467 7.225 6.664zm91.521 2.89c50.601 0 96.396 31.744 114.618 78.298h-73.702v-14c0-4.142-3.357-7.5-7.5-7.5s-7.5 3.358-7.5 7.5v14h-54v-14c0-4.142-3.358-7.5-7.5-7.5s-7.5 3.358-7.5 7.5v14h-71.538c18.221-46.565 63.993-78.298 114.622-78.298zm-111.794 128.298c-.833 2.347-1.29 4.871-1.29 7.5v32.5h-37.5c-4.136 0-7.5-3.364-7.5-7.5v-32.5zm68.71 47.5c0 4.136-3.364 7.5-7.5 7.5h-40c-4.136 0-7.5-3.364-7.5-7.5v-40c0-4.136 3.364-7.5 7.5-7.5h40c4.136 0 7.5 3.364 7.5 7.5zm273-62.5h-66.5c-4.143 0-7.5 3.358-7.5 7.5v40c0 4.136-3.364 7.5-7.5 7.5h-176.5v-32.5c0-2.629-.458-5.153-1.29-7.5h157.79c4.143 0 7.5-3.358 7.5-7.5s-3.357-7.5-7.5-7.5h-360.5c-5.514 0-10-4.486-10-10s4.486-10 10-10h462c5.514 0 10 4.486 10 10s-4.486 10-10 10z"/><path d="m191.5 288.99h-10c-4.142 0-7.5 3.358-7.5 7.5v10c0 4.142 3.358 7.5 7.5 7.5h10c4.142 0 7.5-3.358 7.5-7.5v-10c0-4.142-3.358-7.5-7.5-7.5z"/></svg>