<svg id="Capa_1" enable-background="new 0 0 511.994 511.994" height="512" viewBox="0 0 511.994 511.994" width="512" xmlns="http://www.w3.org/2000/svg"><g><g><path d="m256.296 473.495h-.598-139.745l6.163 22.192c1.445 5.203 6.183 8.805 11.583 8.805h121.999.598 121.999c5.4 0 10.138-3.601 11.583-8.805l6.163-22.192z" fill="#8ac9fe"/></g><g><path d="m396.039 473.497-6.161 22.195c-1.44 5.201-6.181 8.802-11.583 8.802h-18.734c5.401 0 10.132-3.601 11.583-8.802l6.161-22.195z" fill="#60b7ff"/></g><g><path d="m421.581 152.107h-331.168v302.149c0 10.626 8.614 19.24 19.24 19.24h292.688c10.626 0 19.24-8.614 19.24-19.24z" fill="#d8ecfe"/></g><g><path d="m421.585 152.103v302.149c0 10.632-8.622 19.244-19.244 19.244h-22.205c10.622 0 19.244-8.612 19.244-19.244v-302.149z" fill="#c4e2ff"/></g><g><path d="m364.794 82.296h-109.305-108.289l-56.787 69.811h165.076 166.092z" fill="#8ac9fe"/></g><g><path d="m421.585 152.103h-22.005l-56.793-69.806h22.005z" fill="#60b7ff"/></g><g><path d="m376.656 45.753h-241.318c-7.309 0-13.234-5.925-13.234-13.234v-11.783c0-7.309 5.925-13.234 13.234-13.234h241.318c7.309 0 13.234 5.925 13.234 13.234v11.783c0 7.309-5.925 13.234-13.234 13.234z" fill="#8ac9fe"/></g><g><path d="m146.691 45.753h218.611v36.543h-218.611z" fill="#d8ecfe"/></g><g><path d="m342.787 45.753h22.516v36.543h-22.516z" fill="#c4e2ff"/></g><g><g><circle cx="351.453" cy="409.536" fill="#eb5569" r="31.507"/></g><g><circle cx="224.134" cy="346.757" fill="#fe76a8" r="31.507"/></g><g><circle cx="160.541" cy="283.379" fill="#fdb441" r="31.507"/></g><g><circle cx="160.541" cy="220.158" fill="#eb5569" r="31.507"/></g><g><circle cx="160.541" cy="346.757" fill="#fef1da" r="31.507"/></g><g><circle cx="224.134" cy="283.379" fill="#a2e62e" r="31.507"/></g><g><circle cx="287.726" cy="283.379" fill="#aa6a51" r="31.507"/></g><g><circle cx="287.726" cy="346.757" fill="#fdb441" r="31.507"/></g><g><circle cx="351.453" cy="346.757" fill="#a2e62e" r="31.507"/></g><g><circle cx="160.541" cy="409.536" fill="#aa6a51" r="31.507"/></g><g><circle cx="224.134" cy="409.536" fill="#8ac9fe" r="31.507"/></g><g><circle cx="287.726" cy="409.536" fill="#fef1da" r="31.507"/></g><g><path d="m382.956 409.532c0 17.404-14.103 31.507-31.507 31.507-11.313 0-21.245-5.971-26.796-14.933 4.151 2.01 8.802 3.141 13.723 3.141 17.394 0 31.507-14.103 31.507-31.507 0-6.081-1.73-11.763-4.711-16.574 10.532 5.101 17.784 15.894 17.784 28.366z" fill="#e53950"/></g><g><path d="m255.637 346.758c0 17.404-14.103 31.507-31.507 31.507-11.323 0-21.255-5.971-26.806-14.943 4.151 2.02 8.802 3.151 13.733 3.151 17.394 0 31.507-14.103 31.507-31.507 0-6.091-1.73-11.773-4.721-16.594 10.532 5.111 17.794 15.893 17.794 28.386z" fill="#fe5694"/></g><g><path d="m192.052 283.383c0 17.394-14.113 31.507-31.507 31.507-11.323 0-21.245-5.971-26.796-14.933 4.141 2.01 8.792 3.141 13.713 3.141 17.404 0 31.507-14.113 31.507-31.507 0-6.091-1.73-11.772-4.721-16.594 10.533 5.111 17.804 15.894 17.804 28.386z" fill="#fea613"/></g><g><path d="m192.052 220.159c0 17.404-14.113 31.507-31.507 31.507-11.313 0-21.235-5.961-26.786-14.913 4.141 2 8.792 3.121 13.703 3.121 17.404 0 31.507-14.103 31.507-31.507 0-6.081-1.72-11.762-4.711-16.574 10.533 5.091 17.794 15.883 17.794 28.366z" fill="#e53950"/></g><g><path d="m192.052 346.758c0 17.404-14.113 31.507-31.507 31.507-11.323 0-21.255-5.971-26.796-14.933 4.141 2.01 8.792 3.141 13.713 3.141 17.404 0 31.507-14.103 31.507-31.507 0-6.091-1.73-11.773-4.721-16.594 10.533 5.111 17.804 15.893 17.804 28.386z" fill="#fae2c0"/></g><g><path d="m255.637 283.383c0 17.394-14.103 31.507-31.507 31.507-11.323 0-21.245-5.971-26.796-14.943 4.141 2.02 8.802 3.151 13.723 3.151 17.394 0 31.507-14.113 31.507-31.507 0-6.091-1.73-11.772-4.721-16.594 10.532 5.111 17.794 15.894 17.794 28.386z" fill="#97d729"/></g><g><path d="m319.231 283.383c0 17.394-14.103 31.507-31.507 31.507-11.323 0-21.245-5.971-26.796-14.933 4.141 2.01 8.792 3.141 13.713 3.141 17.404 0 31.507-14.113 31.507-31.507 0-6.091-1.72-11.772-4.721-16.594 10.533 5.101 17.804 15.894 17.804 28.386z" fill="#935b44"/></g><g><path d="m319.231 346.758c0 17.404-14.103 31.507-31.507 31.507-11.323 0-21.255-5.971-26.806-14.933 4.141 2.01 8.802 3.141 13.723 3.141 17.404 0 31.507-14.103 31.507-31.507 0-6.091-1.72-11.773-4.721-16.594 10.533 5.101 17.804 15.893 17.804 28.386z" fill="#fea613"/></g><g><path d="m382.956 346.758c0 17.404-14.103 31.507-31.507 31.507-11.313 0-21.245-5.971-26.796-14.933 4.151 2.01 8.802 3.141 13.723 3.141 17.394 0 31.507-14.103 31.507-31.507 0-6.091-1.73-11.773-4.721-16.584 10.532 5.101 17.794 15.893 17.794 28.376z" fill="#97d729"/></g><g><path d="m192.052 409.532c0 17.404-14.113 31.507-31.507 31.507-11.323 0-21.255-5.971-26.796-14.933 4.141 2.01 8.792 3.141 13.713 3.141 17.404 0 31.507-14.103 31.507-31.507 0-6.081-1.73-11.763-4.721-16.574 10.533 5.091 17.804 15.883 17.804 28.366z" fill="#935b44"/></g><g><path d="m255.637 409.532c0 17.404-14.103 31.507-31.507 31.507-11.323 0-21.255-5.971-26.806-14.943 4.151 2.02 8.802 3.151 13.733 3.151 17.394 0 31.507-14.103 31.507-31.507 0-6.081-1.73-11.763-4.721-16.574 10.532 5.091 17.794 15.883 17.794 28.366z" fill="#60b7ff"/></g><g><path d="m319.231 409.532c0 17.404-14.103 31.507-31.507 31.507-11.323 0-21.255-5.971-26.806-14.933 4.141 2.01 8.802 3.141 13.723 3.141 17.404 0 31.507-14.103 31.507-31.507 0-6.081-1.72-11.763-4.711-16.584 10.533 5.101 17.794 15.893 17.794 28.376z" fill="#fae2c0"/></g></g><g><path d="m121.532 409.536c0 21.51 17.499 39.009 39.009 39.009 13.109 0 24.72-6.506 31.797-16.452 7.076 9.946 18.687 16.452 31.796 16.452s24.72-6.507 31.796-16.453c7.076 9.946 18.687 16.453 31.796 16.453 13.151 0 24.793-6.547 31.863-16.547 7.07 10 18.713 16.547 31.864 16.547 21.51 0 39.009-17.499 39.009-39.009 0-12.858-6.256-24.279-15.881-31.39 9.625-7.11 15.881-18.531 15.881-31.389 0-21.51-17.499-39.01-39.009-39.01-13.151 0-24.794 6.548-31.864 16.548-2.518-3.562-5.615-6.682-9.156-9.227 9.861-7.086 16.301-18.646 16.301-31.688 0-21.51-17.499-39.01-39.009-39.01-13.109 0-24.72 6.507-31.796 16.454-7.076-9.947-18.687-16.454-31.796-16.454s-24.719 6.507-31.796 16.453c-2.48-3.486-5.515-6.547-8.979-9.054 9.799-7.093 16.192-18.616 16.192-31.611 0-21.51-17.5-39.01-39.01-39.01s-39.009 17.5-39.009 39.01c0 12.995 6.393 24.518 16.192 31.611-9.799 7.093-16.192 18.616-16.192 31.611 0 13.043 6.441 24.602 16.302 31.688-9.861 7.086-16.302 18.646-16.302 31.689 0 12.858 6.256 24.279 15.881 31.389-9.624 7.111-15.88 18.532-15.88 31.39zm70.805-22.557c-2.406-3.382-5.332-6.368-8.669-8.833 3.337-2.465 6.262-5.451 8.669-8.833 2.406 3.382 5.332 6.368 8.668 8.833-3.336 2.465-6.262 5.452-8.668 8.833zm7.791-40.222c0-13.238 10.769-24.007 24.005-24.007s24.006 10.769 24.006 24.007c0 12.365-9.398 22.573-21.426 23.865-.854-.056-1.712-.095-2.58-.095s-1.726.039-2.58.095c-12.027-1.292-21.425-11.5-21.425-23.865zm24.005 86.785c-13.236 0-24.005-10.769-24.005-24.005 0-12.365 9.398-22.573 21.425-23.865.854.056 1.712.095 2.58.095s1.727-.039 2.58-.095c12.027 1.292 21.425 11.5 21.425 23.865.001 13.235-10.768 24.005-24.005 24.005zm31.797-46.562c-2.406-3.382-5.332-6.368-8.668-8.833 3.337-2.465 6.262-5.451 8.668-8.833 2.406 3.382 5.332 6.369 8.668 8.833-3.337 2.465-6.262 5.451-8.668 8.833zm31.796 46.562c-13.237 0-24.006-10.769-24.006-24.005 0-12.365 9.398-22.573 21.425-23.865.854.056 1.712.095 2.58.095s1.726-.039 2.58-.095c12.027 1.292 21.425 11.5 21.425 23.865.001 13.235-10.768 24.005-24.004 24.005zm87.733-24.006c0 13.236-10.769 24.005-24.006 24.005s-24.006-10.769-24.006-24.005c0-12.365 9.398-22.573 21.426-23.865.854.056 1.712.095 2.58.095s1.726-.039 2.58-.095c12.028 1.292 21.426 11.5 21.426 23.865zm-24.006-86.786c13.237 0 24.006 10.769 24.006 24.007 0 12.365-9.398 22.573-21.426 23.865-.854-.056-1.712-.095-2.58-.095s-1.726.039-2.58.095c-12.028-1.292-21.426-11.5-21.426-23.865 0-13.237 10.769-24.007 24.006-24.007zm-31.864 46.469c2.419 3.421 5.368 6.44 8.736 8.927-3.368 2.488-6.317 5.507-8.736 8.928-2.419-3.421-5.368-6.44-8.736-8.928 3.369-2.487 6.318-5.506 8.736-8.927zm-7.858-22.462c0 12.365-9.398 22.573-21.426 23.865-.854-.056-1.712-.095-2.58-.095s-1.726.039-2.58.095c-12.027-1.292-21.426-11.5-21.426-23.865 0-13.238 10.769-24.007 24.006-24.007s24.006 10.77 24.006 24.007zm-24.005-87.384c13.236 0 24.005 10.769 24.005 24.007 0 13.236-10.769 24.005-24.005 24.005-13.237 0-24.006-10.769-24.006-24.005 0-13.238 10.77-24.007 24.006-24.007zm-31.796 46.562c2.506 3.522 5.579 6.61 9.089 9.133-3.51 2.522-6.583 5.611-9.089 9.133-2.506-3.522-5.579-6.611-9.089-9.133 3.51-2.522 6.583-5.61 9.089-9.133zm-31.797-46.562c13.236 0 24.006 10.769 24.006 24.007 0 13.236-10.769 24.005-24.006 24.005s-24.005-10.769-24.005-24.005c0-13.238 10.769-24.007 24.005-24.007zm-31.796 46.563c2.506 3.522 5.579 6.61 9.088 9.132-3.51 2.522-6.583 5.61-9.088 9.132-2.506-3.522-5.579-6.61-9.089-9.132 3.51-2.522 6.584-5.61 9.089-9.132zm-55.802-85.778c0-13.237 10.769-24.006 24.006-24.006s24.006 10.769 24.006 24.006-10.769 24.006-24.006 24.006c-13.237-.001-24.006-10.77-24.006-24.006zm0 63.221c0-13.238 10.769-24.007 24.006-24.007s24.006 10.769 24.006 24.007c0 13.236-10.769 24.005-24.006 24.005-13.237.001-24.006-10.768-24.006-24.005zm0 63.378c0-13.238 10.769-24.007 24.006-24.007s24.006 10.769 24.006 24.007c0 12.365-9.398 22.573-21.426 23.865-.854-.056-1.712-.095-2.58-.095s-1.726.039-2.58.095c-12.028-1.292-21.426-11.5-21.426-23.865zm21.425 38.914c.854.056 1.712.095 2.58.095s1.726-.039 2.58-.095c12.028 1.292 21.426 11.5 21.426 23.865 0 13.236-10.769 24.005-24.006 24.005s-24.006-10.769-24.006-24.005c.001-12.365 9.399-22.573 21.426-23.865z"/><path d="m429.031 151.256c-.195-1.732-.804-2.909-1.883-4.193-5.349-6.367-10.502-12.911-15.75-19.362-8.445-10.382-16.89-20.764-25.335-31.146-4.42-5.433-8.839-10.867-13.259-16.3v-27h3.853c11.433 0 20.735-9.302 20.735-20.735v-11.784c0-11.434-9.302-20.736-20.736-20.736h-172.004c-4.144 0-7.502 3.358-7.502 7.502s3.358 7.502 7.502 7.502h172.004c3.161 0 5.732 2.572 5.732 5.733v11.783c0 3.161-2.571 5.732-5.732 5.732h-241.318c-3.161 0-5.732-2.571-5.732-5.732v-11.784c0-3.161 2.571-5.733 5.732-5.733h34.64c4.143 0 7.501-3.358 7.501-7.502 0-4.143-3.358-7.502-7.501-7.502h-34.64c-11.433 0-20.735 9.302-20.735 20.736v11.783c0 11.433 9.302 20.735 20.735 20.735h3.853v27s-54.617 67.149-54.629 67.163c-1.051 1.314-1.65 3.003-1.65 4.688v302.149c0 14.745 11.996 26.741 26.741 26.741h.597l4.638 16.698c2.337 8.419 10.073 14.299 18.811 14.299h154.556c4.144 0 7.502-3.358 7.502-7.502 0-4.143-3.358-7.501-7.502-7.501h-154.556c-2.023 0-3.813-1.361-4.354-3.311l-3.522-12.684h260.351l-3.522 12.684c-.541 1.95-2.332 3.311-4.354 3.311h-55.533c-4.144 0-7.501 3.358-7.501 7.501 0 4.144 3.358 7.502 7.501 7.502h55.533c8.739 0 16.474-5.88 18.811-14.299l4.637-16.698h.598c14.746 0 26.741-11.996 26.741-26.741-.002.002-.022-302.718-.054-302.997zm-274.837-98.002h203.607v21.54h-203.607zm-3.426 36.544h210.458l44.583 54.807h-299.623zm263.311 364.457c0 6.472-5.266 11.738-11.738 11.738h-292.688c-6.472 0-11.738-5.266-11.738-11.738v-294.647h316.164z"/></g></g></svg>