<svg id="Layer_1" enable-background="new 0 0 512.002 512.002" height="512" viewBox="0 0 512.002 512.002" width="512" xmlns="http://www.w3.org/2000/svg"><g><g clip-rule="evenodd" fill-rule="evenodd"><path d="m256.001 91.003c15.165 0 26.093 2.008 35.272 4.845 6.209-23.445 6.035-48.779-35.272-59.847-41.307 11.068-41.481 36.402-35.272 59.846 9.179-2.836 20.107-4.844 35.272-4.844z" fill="#ffc144"/><path d="m291.274 95.848c-9.179-2.837-20.107-4.845-35.272-4.845-15.166 0-26.094 2.008-35.272 4.845-6.448 1.993-12.033 4.394-17.618 6.796-9.72 4.179-19.44 8.359-37.11 8.359-17.669 0-27.39-4.18-37.109-8.359-10.408-4.475-20.817-8.95-36.808-10.781 5.452 4.586 8.917 11.459 8.917 19.14 0 8.781-4.527 16.505-11.376 20.963 9.712 1.475 16.6 4.436 23.486 7.396 13.535 5.82 27.071 11.641 52.89 11.641s39.355-5.82 52.891-11.641c3.983-1.713 7.967-3.426 12.497-4.851 6.525-2.053 14.184-3.508 24.612-3.508s18.088 1.456 24.612 3.508c4.531 1.425 8.514 3.138 12.497 4.851 13.535 5.82 27.071 11.641 52.89 11.641s39.355-5.821 52.891-11.641c6.886-2.961 13.773-5.921 23.484-7.395-6.848-4.459-11.375-12.183-11.375-20.964 0-7.682 3.465-14.554 8.918-19.139-15.992 1.829-26.4 6.304-36.808 10.779-9.72 4.179-19.441 8.359-37.11 8.359s-27.389-4.18-37.109-8.359c-5.585-2.401-11.17-4.803-17.618-6.795z" fill="#ffda8f"/><g fill="#ffc144"><path d="m101.001 111.003c0-7.682-3.465-14.555-8.917-19.14-4.347-3.657-9.958-5.859-16.083-5.859-13.807 0-25 11.193-25 25s11.193 25 25 25c5.026 0 9.706-1.483 13.625-4.036 6.848-4.461 11.375-12.184 11.375-20.965z"/><path d="m142.002 256.007h-132.002v20c0 11 9 20 20 20h92.002c11 0 20-9 20-20z"/><path d="m231.389 134.512c0 9.056-2.284 32.132-5.091 59.235h59.406c-2.807-27.103-5.091-50.179-5.091-59.236-6.525-2.053-14.184-3.508-24.612-3.508s-18.087 1.456-24.612 3.509z"/></g><path d="m285.704 193.747h-59.406-10.297c-11 0-20 9-20 20s9 20 20 20h6.159 67.682 6.159c11 0 20-9 20-20s-9-20-20-20z" fill="#ffda8f"/><path d="m289.842 233.747h-67.682c-3.273 32.255-6.159 63.653-6.159 80.003h80c0-16.349-2.886-47.748-6.159-80.003z" fill="#ffc144"/><path d="m296.001 313.75h-80c-11 0-20 9-20 20s9 20 20 20h80c11 0 20-9 20-20s-9-20-20-20z" fill="#ffda8f"/><path d="m296.001 353.75h-80c-26.058 15.045-20 69.751-20 82.25h120.001c0-12.499 6.057-67.205-20.001-82.25z" fill="#ffc144"/><path d="m316.002 436.001h-120.001c-10.999 0-19.999 9-19.999 20v20h160v-20c-.001-11-9.001-20-20-20z" fill="#ffda8f"/><path d="m390 296.007h92.002c11 0 20-9 20-20v-20h-132.002v20c0 11 9 20 20 20z" fill="#ffc144"/><path d="m422.376 131.967c3.919 2.553 8.599 4.036 13.625 4.036 13.807 0 25-11.193 25-25s-11.193-25-25-25c-6.125 0-11.736 2.203-16.083 5.86-5.452 4.586-8.916 11.459-8.916 19.14-.001 8.781 4.526 16.504 11.374 20.964z" fill="#ffc144"/></g><g><path d="m502.002 246.007h-2.669l-48.979-103.095c12.159-5.491 20.647-17.724 20.647-31.909 0-19.299-15.701-35-35-35-7.46 0-14.378 2.354-20.064 6.348-.375.013-.752.042-1.131.098-15.262 2.244-25.624 6.7-35.645 11.008-9.417 4.049-17.55 7.546-33.16 7.546-15.611 0-23.743-3.497-33.161-7.547-3.213-1.382-6.452-2.773-9.86-4.101 1.747-9.629 2.366-21.688-2.824-33.137-6.415-14.153-20.4-24.205-41.567-29.876-1.695-.455-3.48-.455-5.176 0-21.218 5.685-35.219 15.771-41.613 29.979-5.131 11.4-4.521 23.409-2.777 33.034-3.409 1.328-6.649 2.72-9.864 4.102-9.416 4.049-17.548 7.545-33.158 7.545-15.611 0-23.743-3.497-33.159-7.546-9.355-4.023-19.031-8.184-32.76-10.549-1.109-.192-2.205-.184-3.258-.017-5.823-4.325-13.029-6.888-20.823-6.888-19.299 0-35 15.701-35 35 0 14.185 8.488 26.418 20.647 31.909l-48.978 103.096h-2.67c-5.522 0-10 4.477-10 10v20c0 16.542 13.458 30 30 30h92.002c16.542 0 30-13.458 30-30v-20c0-5.523-4.478-10-10-10h-2.669l-48.979-103.095c.383-.173.763-.349 1.139-.535.352.122.712.23 1.084.314 6.226 1.406 11.257 3.569 16.583 5.858 2.604 1.12 5.298 2.279 8.119 3.409 1.22.489 2.478.72 3.716.72 3.967 0 7.721-2.377 9.286-6.284 2.054-5.126-.438-10.948-5.564-13.001-2.587-1.037-5.163-2.145-7.656-3.217-3.06-1.315-6.179-2.651-9.58-3.888 2.253-4.621 3.52-9.807 3.52-15.284 0-1.643-.122-3.258-.343-4.841 5.011 1.685 9.578 3.645 14.283 5.669 9.998 4.3 21.331 9.173 41.06 9.173 19.728 0 31.061-4.873 41.064-9.174 12.947-5.567 25.177-10.826 48.936-10.826 23.76 0 35.99 5.259 48.94 10.827 9.998 4.3 21.331 9.173 41.06 9.173 19.728 0 31.062-4.873 41.061-9.173 4.698-2.02 9.265-3.981 14.282-5.668-.22 1.584-.343 3.198-.343 4.841 0 5.476 1.267 10.662 3.519 15.282-3.396 1.235-6.513 2.573-9.579 3.891-12.949 5.568-25.181 10.828-48.94 10.828s-35.989-5.259-48.943-10.83c-9.999-4.299-21.331-9.171-41.057-9.171-19.727 0-31.059 4.873-41.062 9.173-2.479 1.067-5.044 2.17-7.662 3.219-5.126 2.055-7.616 7.876-5.562 13.003s7.877 7.616 13.003 5.562c2.012-.807 3.994-1.643 5.86-2.44-.753 8.932-1.967 20.716-3.37 34.228h-1.208c-16.542 0-30 13.458-30 30 0 14.913 10.939 27.314 25.214 29.613-2.339 23.411-4.452 46.287-5.046 62.053-11.726 4.081-20.167 15.238-20.167 28.337 0 9.696 4.628 18.328 11.787 23.816-13.946 20.616-12.715 53.768-12.009 70.23-11.524 4.19-19.778 15.251-19.778 28.204v20c0 5.523 4.478 10 10 10h160c5.522 0 10-4.477 10-10v-20c0-12.954-8.253-24.015-19.777-28.204.707-16.462 1.937-49.614-12.01-70.23 7.158-5.488 11.786-14.12 11.786-23.816 0-13.098-8.441-24.256-20.167-28.337-.594-15.765-2.707-38.642-5.046-62.053 14.274-2.299 25.213-14.701 25.213-29.614 0-16.542-13.458-30-30-30h-1.208c-1.402-13.511-2.616-25.295-3.369-34.228 13.568 5.803 28.171 11.484 54.577 11.484 27.878 0 42.602-6.332 56.841-12.454 5.64-2.425 10.99-4.711 17.794-6.108.333.164.673.317 1.012.471l-48.977 103.093h-2.67c-5.522 0-10 4.477-10 10v20c0 16.542 13.458 30 30 30h92.002c16.542 0 30-13.458 30-30v-20c0-5.523-4.478-10-10-10zm-426.001-150.004c8.271 0 15 6.729 15 15s-6.729 15-15 15-15-6.729-15-15 6.728-15 15-15zm56.001 180.004c0 5.514-4.486 10-10 10h-92.002c-5.514 0-10-4.486-10-10v-10h112.002zm-97.19-30 41.189-86.7 41.19 86.7zm193.513-162.437c-2.613-17.301 2.56-29.754 27.676-37.181 25.14 7.434 30.295 19.884 27.679 37.182-7.693-1.576-16.655-2.568-27.679-2.568-11.023 0-19.983.992-27.676 2.567zm52.401 160.177c2.258 22.515 4.328 44.602 5.025 60.003h-59.5c.697-15.401 2.767-37.488 5.025-60.003zm-64.725 80.003h80c5.514 0 10 4.486 10 10s-4.486 10-10 10h-80c-5.514 0-10-4.486-10-10s4.486-10 10-10zm90.282 102.251h-100.563c-.649-15.491-1.644-50.969 13.265-62.25h74.031c14.911 11.281 13.916 46.759 13.267 62.25zm19.718 40h-140v-10c0-5.514 4.486-10 10-10h120.001c5.514 0 9.999 4.486 9.999 10zm-20-252.253c0 5.514-4.486 10-10 10h-80c-5.514 0-10-4.486-10-10s4.486-10 10-10h80c5.514-.001 10 4.486 10 10zm-68.685-30.001c1.867-18.003 3.3-32.116 3.838-41.429 4.208-.826 9.003-1.316 14.847-1.316s10.639.49 14.847 1.316c.539 9.313 1.972 23.426 3.838 41.428h-37.37zm213.685-72.744c0 8.271-6.729 15-15 15s-15-6.729-15-15 6.729-15 15-15 15 6.729 15 15zm-15 48.303 41.19 86.7h-82.38zm56.001 116.701c0 5.514-4.486 10-10 10h-92.002c-5.514 0-10-4.486-10-10v-10h112.002z"/><path d="m176.001 151.003c0-5.523-4.478-10-10-10h-.007c-5.522 0-9.996 4.477-9.996 10s4.48 10 10.003 10 10-4.477 10-10z"/></g></g></svg>