<svg id="Layer_5" enable-background="new 0 0 64 64" height="512" viewBox="0 0 64 64" width="512" xmlns="http://www.w3.org/2000/svg"><g><g><path d="m7.26 37.03 15.02 1.67c-.18 1.07-.28 2.18-.28 3.3 0 1.13.09 2.23.28 3.3l-15.02 1.67c-.17.02-.35.03-.52.03-2.62 0-4.74-2.12-4.74-4.74v-.52c0-1.31.53-2.5 1.39-3.35.85-.86 2.04-1.39 3.35-1.39.17 0 .35.01.52.03z" fill="#969faa"/><path d="m28.35 33.68c-1.48 2.43-2.35 5.27-2.35 8.32 0 3.87 1.37 7.41 3.65 10.18 2.94 3.55 7.38 5.82 12.35 5.82 4.42 0 8.42-1.79 11.32-4.68 2.89-2.9 4.68-6.9 4.68-11.32 0-7.74-5.48-14.18-12.77-15.68-1.05-.21-2.13-.32-3.23-.32-1.69 0-3.32.27-4.85.75.91-1.4 1.62-2.92 2.11-4.54.9-.12 1.81-.21 2.74-.21 11.05 0 20 8.95 20 20s-8.95 20-20 20c-9.92 0-18.15-7.22-19.72-16.7-.19-1.07-.28-2.17-.28-3.3 0-1.12.1-2.23.28-3.3.29-1.74.81-3.41 1.52-4.98.71.19 1.45.28 2.2.28.8 0 1.59-.11 2.35-.32z" fill="#e6e9ed"/><path d="m45.23 26.32c-1.05-.21-2.13-.32-3.23-.32-1.69 0-3.32.27-4.85.75-1.82 2.8-4.43 5.09-7.61 6.5-.39.17-.78.32-1.19.43-1.48 2.43-2.35 5.27-2.35 8.32 0 3.87 1.37 7.41 3.65 10.18 2.94 3.55 7.38 5.82 12.35 5.82 4.42 0 8.42-1.79 11.32-4.68 2.89-2.9 4.68-6.9 4.68-11.32 0-7.74-5.48-14.18-12.77-15.68z" fill="#69d6f4"/><path d="m42 50.4v3.6c-2.42-1.21-4.26-3.26-5.22-5.69-.51-1.25-.78-2.62-.78-4.02v-3.29c0-1.11.9-2 2-2 2.59 3.24 4 7.26 4 11.4z" fill="#dfb28b"/><path d="m47.22 48.31c-.96 2.43-2.8 4.48-5.22 5.69v-3.6c0-4.14 1.41-8.16 4-11.4 1.1 0 2 .89 2 2v3.29c0 1.4-.27 2.77-.78 4.02z" fill="#dfb28b"/><path d="m46 39c-2.59 3.24-4 7.26-4 11.4 0-4.14-1.41-8.16-4-11.4h.54 6.92z" fill="#d3a06c"/><path d="m43.31 33.23c1.57.53 2.69 2.02 2.69 3.77 0 .73-.2 1.41-.54 2h-6.92c-.34-.59-.54-1.27-.54-2 0-1.75 1.12-3.24 2.69-3.77.41-.15.85-.23 1.31-.23s.9.08 1.31.23z" fill="#f0d0b4"/><path d="m23.8 33.72c-.46-.12-.9-.28-1.34-.47-6.35-2.83-10.46-9.14-10.46-16.1v-11.15h4.34c1.94 0 3.76-.75 5.12-2.12 1.22-1.21 2.83-1.88 4.54-1.88s3.32.67 4.54 1.88c1.36 1.37 3.18 2.12 5.12 2.12h4.34v11.15c0 1.74-.26 3.45-.74 5.06-.49 1.62-1.2 3.14-2.11 4.54-1.82 2.8-4.43 5.09-7.61 6.5-.39.17-.78.32-1.19.43-.76.21-1.55.32-2.35.32-.75 0-1.49-.09-2.2-.28z" fill="#fcd770"/><path d="m36 10v7.15c0 5.38-3.17 10.26-8.09 12.44-.6.27-1.25.41-1.91.41s-1.31-.14-1.91-.41c-2.46-1.09-4.48-2.85-5.89-5.02s-2.2-4.73-2.2-7.42v-7.15h.34c2.98 0 5.84-1.18 7.95-3.29.46-.46 1.07-.71 1.71-.71s1.25.25 1.71.71c1.05 1.05 2.3 1.88 3.65 2.44 1.35.55 2.81.85 4.3.85z" fill="#ffeaa7"/></g><g><path d="m26 31c.804 0 1.584-.166 2.32-.492 5.273-2.344 8.68-7.587 8.68-13.357v-8.151h-1.343c-2.736 0-5.309-1.065-7.243-3-1.289-1.289-3.539-1.289-4.828 0-1.935 1.935-4.507 3-7.243 3h-1.343v8.151c0 5.77 3.407 11.013 8.68 13.356.736.327 1.516.493 2.32.493zm-9-13.849v-6.169c3.023-.158 5.843-1.411 8-3.568.535-.533 1.465-.533 2 0 2.157 2.157 4.977 3.41 8 3.568v6.169c0 4.98-2.94 9.506-7.492 11.528-.957.426-2.059.426-3.016 0-4.552-2.022-7.492-6.547-7.492-11.528z"/><path d="m32.293 14.293-8.293 8.293-2.293-2.293-1.414 1.414 3.707 3.707 9.707-9.707z"/><path d="m31 48.132v3.867h2v-2.133l3.161-.451c1.113 2.329 2.976 4.27 5.392 5.478l.447.224.447-.224c2.416-1.208 4.279-3.15 5.392-5.478l3.161.451v2.133h2v-3.867l-4.438-.634c.136-.489.242-.989.315-1.499h3.741l1.276-2.553-1.789-.895-.724 1.447h-2.381v-2.22l4-.999v-3.781h-2v2.219l-2.262.566c-.352-.791-1.039-1.391-1.877-1.644.087-.373.14-.755.14-1.141 0-1.809-.975-3.382-2.418-4.26l1.347-3.368-1.857-.742-1.376 3.44c-.229-.032-.457-.07-.695-.07s-.466.038-.695.07l-1.376-3.44-1.857.742 1.347 3.368c-1.446.879-2.421 2.452-2.421 4.261 0 .386.052.768.14 1.141-.839.253-1.525.854-1.877 1.644l-2.263-.566v-2.219h-2v3.781l4 .999v2.22h-2.382l-.724-1.447-1.789.895 1.276 2.553h3.741c.073.509.179 1.01.315 1.499zm16-3.841c0 3.18-1.502 6.083-4 7.921v-1.809c0-3.703 1.222-7.331 3.429-10.298.335.162.571.498.571.894zm-5 .032c-.506-1.519-1.2-2.971-2.067-4.324h4.135c-.868 1.353-1.562 2.805-2.068 4.324zm0-10.324c1.654 0 3 1.346 3 3 0 .345-.08.678-.194 1h-5.612c-.114-.322-.194-.655-.194-1 0-1.654 1.346-3 3-3zm-5 7c0-.396.236-.732.571-.894 2.207 2.966 3.429 6.594 3.429 10.297v1.809c-2.498-1.838-4-4.741-4-7.921z"/><path d="m42 21c-.457 0-.925.02-1.42.059.273-1.269.42-2.577.42-3.908v-12.151h-5.343c-1.668 0-3.236-.649-4.415-1.828-1.399-1.401-3.261-2.172-5.242-2.172s-3.843.771-5.242 2.172c-1.179 1.179-2.747 1.828-4.415 1.828h-5.343v12.151c0 7.349 4.34 14.026 11.057 17.012.135.06.274.104.411.158-.425 1.073-.757 2.168-.998 3.28l-14.098-1.566c-.211-.023-.423-.035-.635-.035-3.163 0-5.737 2.574-5.737 5.737v.525c0 3.164 2.574 5.738 5.737 5.738.212 0 .424-.012.634-.035l14.101-1.566c2.028 9.473 10.458 16.601 20.528 16.601 11.579 0 21-9.421 21-21s-9.421-21-21-21zm-12.97 13.514c.309-.102.615-.217.916-.351 3.231-1.437 5.904-3.733 7.816-6.542 1.379-.407 2.801-.621 4.238-.621 8.271 0 15 6.729 15 15s-6.729 15-15 15-15-6.729-15-15c0-2.622.706-5.2 2.03-7.486zm-16.03-17.363v-10.151h3.343c2.202 0 4.272-.857 5.829-2.414 1.022-1.023 2.382-1.586 3.828-1.586s2.806.563 3.828 1.586c1.557 1.557 3.627 2.414 5.829 2.414h3.343v10.151c0 6.559-3.873 12.519-9.866 15.184-1.991.883-4.279.883-6.265 0-5.995-2.664-9.869-8.624-9.869-15.184zm-5.851 28.826c-2.187.248-4.149-1.516-4.149-3.714v-.525c0-2.198 1.955-3.962 4.15-3.714l13.994 1.554c-.093.801-.144 1.608-.144 2.422 0 .82.059 1.626.151 2.421zm34.851 15.023c-10.477 0-19-8.523-19-19 0-2.457.499-4.851 1.434-7.139.516.084 1.037.139 1.566.139.182 0 .362-.018.543-.028-1.009 2.207-1.543 4.6-1.543 7.028 0 9.374 7.626 17 17 17s17-7.626 17-17-7.626-17-17-17c-.963 0-1.921.09-2.867.252.333-.689.621-1.399.869-2.127.73-.084 1.379-.125 1.998-.125 10.477 0 19 8.523 19 19s-8.523 19-19 19z"/><path d="m45 5h10v2h-10z"/><path d="m45 9h10v2h-10z"/><path d="m53 13h2v2h-2z"/><path d="m45 13h2v2h-2z"/><path d="m49 13h2v2h-2z"/></g></g></svg>