<svg id="Icons" height="512" viewBox="0 0 60 60" width="512" xmlns="http://www.w3.org/2000/svg"><path d="m48.61 14.13v-.01c-3.48-6.76-10.47-13.12-24.45-13.12-26.84 0-27.74 20.11-15.91 24 0 0 4.42 2 4.42 5s-4.42 5-4.42 5c-11.83 3.89-10.93 24 15.91 24 11.41 0 18.16-4.24 22.15-9.47a5.678 5.678 0 0 1 -1.31-3.53c0-3.31 1.39-5.74 3.44-7h-.44v-4zm-31.61 36.87a6 6 0 1 1 6-6 6 6 0 0 1 -6 6z" fill="#ffe0b2"/><path d="m48 35v4h.44c-2.05 1.26-3.44 3.69-3.44 7a5.678 5.678 0 0 0 1.31 3.53c-3.99 5.23-10.74 9.47-22.15 9.47-.51 0-1-.02-1.49-.04 10.49-.35 16.83-4.44 20.64-9.43a5.678 5.678 0 0 1 -1.31-3.53 7.981 7.981 0 0 1 3-6.7v-4.3l.61-20.87v-.01c-3.36-6.53-10.03-12.68-23.1-13.08.55-.02 1.08-.04 1.65-.04 13.98 0 20.97 6.36 24.45 13.12v.01z" fill="#dfc49c"/><circle cx="11.5" cy="14.5" fill="#9d27b0" r="4.5"/><circle cx="25.5" cy="10.5" fill="#ffdf00" r="4.5"/><circle cx="38.5" cy="16.5" fill="#02a9f4" r="4.5"/><circle cx="43.5" cy="30.5" fill="#e91e63" r="4.5"/><path d="m59 46c0 4.97-7 13-7 13s.05-4.86-3-7a12.161 12.161 0 0 1 -2.69-2.47 5.678 5.678 0 0 1 -1.31-3.53c0-3.31 1.39-5.74 3.44-7h7.11c2.06 1.26 3.45 3.71 3.45 7z" fill="#ffeb3a"/><path d="m55.55 39h-3c2.06 1.26 3.45 3.71 3.45 7 0 2.964-2.487 7.007-4.5 9.8a12.036 12.036 0 0 1 .5 3.2s7-8.03 7-13c0-3.29-1.39-5.74-3.45-7z" fill="#fdd834"/><path d="m48 35h8v4h-8z" fill="#783e22"/><path d="m56 35h-8l.61-20.87v-.01l.3-10.12a3.091 3.091 0 0 1 6.18 0z" fill="#a0522d"/><path d="m55.09 4a3.094 3.094 0 0 0 -3.09-3 3.058 3.058 0 0 0 -1.5.4 3.081 3.081 0 0 1 1.59 2.6l.91 31h3z" fill="#783e22"/><path d="m17 38a7 7 0 1 0 7 7 7.008 7.008 0 0 0 -7-7zm0 12a5 5 0 1 1 5-5 5.006 5.006 0 0 1 -5 5z"/><path d="m17 14.5a5.5 5.5 0 1 0 -5.5 5.5 5.506 5.506 0 0 0 5.5-5.5zm-5.5 3.5a3.5 3.5 0 1 1 3.5-3.5 3.5 3.5 0 0 1 -3.5 3.5z"/><path d="m25.5 5a5.5 5.5 0 1 0 5.5 5.5 5.506 5.506 0 0 0 -5.5-5.5zm0 9a3.5 3.5 0 1 1 3.5-3.5 3.5 3.5 0 0 1 -3.5 3.5z"/><path d="m44 16.5a5.5 5.5 0 1 0 -5.5 5.5 5.506 5.506 0 0 0 5.5-5.5zm-9 0a3.5 3.5 0 1 1 3.5 3.5 3.5 3.5 0 0 1 -3.5-3.5z"/><path d="m57 38.822v-3.822-.014s0-.01 0-.015l-.912-31a4.09 4.09 0 0 0 -8.176 0l-.2 6.754c-3.789-5.411-10.757-10.725-23.552-10.725-16.111 0-22.97 6.981-24.016 13.514a11.125 11.125 0 0 0 7.734 12.416c.407.2 3.792 1.906 3.792 4.07 0 1.894-2.691 3.556-3.788 4.068a11.125 11.125 0 0 0 -7.738 12.418c1.046 6.533 7.905 13.514 24.016 13.514 9.73 0 17.183-3.007 22.184-8.929a14.835 14.835 0 0 0 2.082 1.747c2.574 1.807 2.574 6.13 2.574 6.174a1 1 0 0 0 .646.943 1.021 1.021 0 0 0 .354.065 1 1 0 0 0 .753-.343c.297-.339 7.247-8.373 7.247-13.657a9.164 9.164 0 0 0 -3-7.178zm-8-.822v-2h6v2zm3-36a2.079 2.079 0 0 1 2.088 2.028l.882 29.972h-5.94l.882-29.972a2.079 2.079 0 0 1 2.088-2.028zm-27.84 56c-14.853 0-21.125-6.111-22.042-11.831a9.164 9.164 0 0 1 6.444-10.219.8.8 0 0 0 .1-.039c.205-.093 5.008-2.311 5.008-5.911s-4.8-5.818-5.008-5.911a.8.8 0 0 0 -.1-.039 9.164 9.164 0 0 1 -6.444-10.219c.917-5.72 7.189-11.831 22.042-11.831 11.24 0 19.124 4.163 23.446 12.367l-.356 12.121a5.5 5.5 0 1 0 -.243 8.245l-.007.238v.015.014 3.815a9.18 9.18 0 0 0 -3 7.185 6.47 6.47 0 0 0 1.071 3.468c-4.607 5.657-11.634 8.532-20.911 8.532zm22.84-27.5a3.5 3.5 0 1 1 -3.5-3.5 3.5 3.5 0 0 1 3.5 3.5zm5.722 26.026a8.55 8.55 0 0 0 -3.148-5.345 11.244 11.244 0 0 1 -2.474-2.262 4.7 4.7 0 0 1 -1.1-2.919 7 7 0 0 1 2.759-6h6.473a6.983 6.983 0 0 1 2.768 6c0 2.989-3.072 7.651-5.278 10.526z"/></svg>