<svg height="496pt" viewBox="-80 0 496 496" width="496pt" xmlns="http://www.w3.org/2000/svg"><path d="m88 408h160v88h-160zm0 0" fill="#e4bf98"/><path d="m88 408h136v88h-136zm0 0" fill="#f9daae"/><path d="m40 216v96c0 70.695312 57.304688 128 128 128s128-57.304688 128-128v-96" fill="#e4bf98"/><path d="m156 439.390625c65.054688-6.054687 116-60.75 116-127.390625v-96h-232v96c0 66.640625 50.945312 121.335938 116 127.390625zm0 0" fill="#f9daae"/><path d="m264 264h32v32h-32zm0 0" fill="#999"/><path d="m40 264h32v32h-32zm0 0" fill="#999"/><path d="m72 248v64h72l8-32h32l8 32h72v-64zm0 0" fill="#b3b3b3"/><path d="m72 248v64h56l8-32h48l8 32h56v-64zm0 0" fill="#ccc"/><path d="m8 184h320v32h-320zm0 0" fill="#eb9238"/><path d="m8 200h320v16h-320zm0 0" fill="#f3a546"/><path d="m24 184v-32c0-61.855469 50.144531-112 112-112h64c61.855469 0 112 50.144531 112 112v32" fill="#f3a546"/><path d="m208 24h32l-16 160h-32" fill="#f4b23e"/><path d="m128 24h-32l16 160h32" fill="#f4b23e"/><path d="m144 184-16-176h80l-16 176" fill="#f3a546"/><path d="m328 224h-320c-4.425781 0-8-3.574219-8-8v-32c0-4.425781 3.574219-8 8-8h320c4.425781 0 8 3.574219 8 8v32c0 4.425781-3.574219 8-8 8zm-312-16h304v-16h-304zm0 0"/><path d="m320 184h-16v-32c0-42.832031-26.863281-81.878906-66.855469-97.175781l5.71875-14.9375c46.136719 17.632812 77.136719 62.699219 77.136719 112.113281zm0 0"/><path d="m32 184h-16v-32c0-49.40625 31-94.472656 77.144531-112.121094l5.71875 14.9375c-40 15.3125-66.863281 54.359375-66.863281 97.183594zm0 0"/><path d="m104.039062 184.800781-16-160c-.222656-2.25.511719-4.496093 2.03125-6.167969 1.515626-1.679687 3.671876-2.632812 5.929688-2.632812h32v16h-23.160156l15.121094 151.199219zm0 0"/><path d="m199.96875 184.726562-15.9375-1.453124 15.207031-167.273438h-62.484375l15.207032 167.273438-15.9375 1.453124-16-176c-.199219-2.238281.542968-4.460937 2.066406-6.125 1.519531-1.65625 3.664062-2.601562 5.910156-2.601562h80c2.246094 0 4.390625.945312 5.902344 2.601562 1.511718 1.664063 2.265625 3.878907 2.066406 6.125zm0 0"/><path d="m231.960938 184.800781-15.921876-1.59375 15.121094-151.207031h-23.160156v-16h32c2.257812 0 4.414062.953125 5.929688 2.632812 1.511718 1.671876 2.253906 3.910157 2.03125 6.167969zm0 0"/><path d="m264 320h-72c-3.671875 0-6.863281-2.496094-7.761719-6.0625l-6.484375-25.9375h-19.507812l-6.492188 25.9375c-.890625 3.566406-4.082031 6.0625-7.753906 6.0625h-72c-4.425781 0-8-3.574219-8-8v-64c0-4.425781 3.574219-8 8-8h192c4.425781 0 8 3.574219 8 8v64c0 4.425781-3.574219 8-8 8zm-65.753906-16h57.753906v-48h-176v48h57.753906l6.492188-25.9375c.890625-3.566406 4.082031-6.0625 7.753906-6.0625h32c3.671875 0 6.863281 2.496094 7.761719 6.0625zm0 0"/><path d="m264 256h32v16h-32zm0 0"/><path d="m264 288h32v16h-32zm0 0"/><path d="m40 256h32v16h-32zm0 0"/><path d="m40 288h32v16h-32zm0 0"/><path d="m168 368c-2.046875 0-4.097656-.785156-5.65625-2.34375l-13.65625-13.65625h-12.6875v-16h16c2.128906 0 4.160156.839844 5.65625 2.34375l10.34375 10.34375 10.34375-10.34375c1.496094-1.503906 3.527344-2.34375 5.65625-2.34375h16v16h-12.6875l-13.65625 13.65625c-1.558594 1.558594-3.609375 2.34375-5.65625 2.34375zm0 0"/><path d="m168 400c-22.359375 0-44.519531-7.390625-62.40625-20.808594l-6.394531-4.792968 9.59375-12.796876 6.398437 4.796876c15.136719 11.355468 33.886719 17.601562 52.808594 17.601562s37.671875-6.246094 52.800781-17.601562l6.40625-4.796876 9.59375 12.796876-6.402343 4.800781c-17.878907 13.410156-40.039063 20.800781-62.398438 20.800781zm0 0"/><path d="m168 448c-74.992188 0-136-61.007812-136-136v-96h16v96c0 66.167969 53.832031 120 120 120s120-53.832031 120-120v-96h16v96c0 74.992188-61.007812 136-136 136zm0 0"/><path d="m80 408h16v88h-16zm0 0"/><path d="m240 408h16v88h-16zm0 0"/></svg>