<svg id="Capa_1" enable-background="new 0 0 512.029 512.029" height="512" viewBox="0 0 512.029 512.029" width="512" xmlns="http://www.w3.org/2000/svg"><g><g><path d="m125.016 431.455-44.43-44.43c-5.75-5.75-15.04-5.87-20.93-.27-14.892 14.131-4.648 4.414-44.65 42.35-19.636 18.601-20.062 49.708-.92 68.85 19.527 19.506 50.691 18.279 68.84-.92 37.242-39.258 28.646-30.198 42.36-44.649 5.6-5.891 5.48-15.181-.27-20.931z" fill="#c567ea"/></g><g><path d="m125.286 452.386c-13.736 14.474-5.069 5.34-42.36 44.649-18.151 19.201-49.315 20.424-68.84.92l88.72-88.71 22.21 22.21c5.75 5.75 5.87 15.04.27 20.931z" fill="#a24bdb"/></g><g><path d="m354.626 189.415-32-32c-5.75-5.739-15.03-5.87-20.93-.27-10.041 9.525-234.186 222.158-253.21 240.21l66.2 66.2c15.336-16.161-27.591 29.088 240.21-253.21 5.6-5.9 5.48-15.18-.27-20.93z" fill="#e681fa"/></g><g><path d="m354.896 210.346c-252.768 266.452-223.962 236.088-240.21 253.21l-33.1-33.101 257.04-257.04 16 16c5.75 5.75 5.87 15.03.27 20.931z" fill="#c567ea"/></g><g><path d="m508.656 206.565-59.28-72.96 38.24-88.99c2.6-6.049.813-12.95-3.42-16.77-4.32-4.12-10.68-5.3-16.2-2.97l-89.52 37.82-73-59.31c-9.777-7.947-24.46-.975-24.46 11.64v95.73l-87.71 43.85c-5.53 2.77-8.8 8.65-8.23 14.81.58 6.16 4.87 11.33 10.82 13.03 1.536.439 103.668 29.647 104.51 29.88l29.26 96.07c3.861 12.679 21.146 14.476 27.52 2.81l43.73-80.18h96.1c12.755 0 19.521-14.803 11.64-24.46z" fill="#fed330"/></g><g><path d="m497.016 231.025h-96.1l-43.73 80.18c-6.358 11.638-23.654 9.888-27.52-2.81l-29.26-96.07c-.84-.232-14.719 14.03 183.79-184.48 4.198 3.789 6.04 10.674 3.42 16.77l-38.24 88.99 59.28 72.96c7.876 9.651 1.072 24.46-11.64 24.46z" fill="#fdb500"/></g></g></svg>