<svg height="512pt" viewBox="-12 0 512 512" width="512pt" xmlns="http://www.w3.org/2000/svg"><path d="m268 34c0 13.253906-10.746094 24-24 24s-24-10.746094-24-24 10.746094-24 24-24 24 10.746094 24 24zm0 0" fill="#d8ec84"/><path d="m65.351562 385c0 13.253906-10.746093 24-24 24-13.257812 0-24-10.746094-24-24s10.742188-24 24-24c13.253907 0 24 10.746094 24 24zm0 0" fill="#ffcb7c"/><path d="m470.648438 385c0 13.253906-10.742188 24-24 24-13.253907 0-24-10.746094-24-24s10.746093-24 24-24c13.257812 0 24 10.746094 24 24zm0 0" fill="#ff6977"/><path d="m416 268c0 94.992188-77.007812 172-172 172s-172-77.007812-172-172 77.007812-172 172-172 172 77.007812 172 172zm0 0" fill="#60a4ff"/><path d="m276.296875 315.425781h-64.59375c-44.699219 0-81.472656 33.890625-86.054687 77.375 30.835937 29.25 72.496093 47.199219 118.351562 47.199219s87.515625-17.949219 118.351562-47.199219c-4.582031-43.484375-41.355468-77.375-86.054687-77.375zm0 0" fill="#91def5"/><path d="m191.628906 227.460938v35.597656c0 28.921875 23.449219 52.371094 52.371094 52.371094s52.371094-23.449219 52.371094-52.371094v-35.597656zm0 0" fill="#ffddcf"/><path d="m244 162.484375c-28.921875 0-52.371094 23.449219-52.371094 52.371094v25.503906h25.605469c17.023437 0 33.167969-7.535156 44.101563-20.582031l35.03125 20.582031v-25.503906c.003906-28.921875-23.445313-52.371094-52.367188-52.371094zm0 0" fill="#8690a6"/><path d="m457.667969 113.46875c0 39.285156-31.847657 71.132812-71.136719 71.132812-39.285156 0-71.132812-31.847656-71.132812-71.132812 0-39.289062 31.847656-71.136719 71.132812-71.136719 39.289062 0 71.136719 31.847657 71.136719 71.136719zm0 0" fill="#cbe558"/><path d="m469.957031 360.238281c11.972657-29.269531 18.042969-60.265625 18.042969-92.238281 0-40.867188-10.257812-81.101562-29.703125-116.746094 5.972656-11.292968 9.371094-24.148437 9.371094-37.785156 0-44.738281-36.398438-81.136719-81.136719-81.136719-15.960938 0-30.851562 4.652344-43.417969 12.648438-21.023437-9.359375-43.179687-15.648438-66.019531-18.746094-3.523438-15.015625-17.019531-26.234375-33.09375-26.234375s-29.570312 11.21875-33.09375 26.234375c-38.570312 5.25-75.617188 19.808594-107.484375 42.308594-4.511719 3.1875-5.585937 9.425781-2.402344 13.9375 1.949219 2.761719 5.039063 4.234375 8.179688 4.234375 1.992187 0 4.003906-.597656 5.757812-1.832032 28.886719-20.398437 62.40625-33.6875 97.328125-38.652343 4.921875 12.722656 17.277344 21.769531 31.714844 21.769531 14.433594 0 26.789062-9.046875 31.714844-21.761719 17.277344 2.445313 34.125 6.886719 50.304687 13.257813-9.371093 10.496094-16.066406 23.429687-18.984375 37.726562-20.117187-7.445312-41.261718-11.222656-63.035156-11.222656-100.355469 0-182 81.644531-182 182 0 51.410156 21.433594 97.90625 55.824219 131.035156.578125.722656 1.253906 1.363282 2.015625 1.902344 32.539062 30.414062 76.210937 49.0625 124.160156 49.0625 47.410156 0 90.640625-18.230469 123.066406-48.039062 1.613282-.855469 2.949219-2.136719 3.878906-3.679688 33.941407-33.078125 55.054688-79.257812 55.054688-130.28125 0-26.511719-5.820312-52.742188-16.894531-76.617188 13.933593-4.042968 26.328125-11.726562 36.089843-21.953124 14.953126 30.519531 22.804688 64.300781 22.804688 98.570312 0 28.898438-5.40625 56.917969-16.054688 83.40625-4.640624-.730469-9.421874-.5-14.09375.75-8.773437 2.351562-16.105468 7.980469-20.648437 15.84375-4.539063 7.863281-5.746094 17.027344-3.394531 25.800781 1.246094 4.652344 3.425781 8.894531 6.359375 12.539063-42.324219 53.773437-107.578125 85.660156-176.167969 85.660156-68.570312 0-133.847656-31.890625-176.171875-85.660156 2.9375-3.640625 5.117187-7.886719 6.363281-12.539063 2.351563-8.773437 1.144532-17.9375-3.394531-25.800781-4.542969-7.867188-11.875-13.492188-20.648437-15.84375-4.671876-1.253906-9.457032-1.484375-14.09375-.75-10.648438-26.492188-16.054688-54.511719-16.054688-83.40625 0-46.519531 14.125-91.121094 40.84375-128.992188 3.183594-4.511718 2.109375-10.75-2.40625-13.9375-4.511719-3.183593-10.75-2.105468-13.933594 2.40625-29.113281 41.261719-44.503906 89.851563-44.503906 140.523438 0 31.96875 6.066406 62.96875 18.039062 92.242188-4.566406 4.285156-7.867187 9.757812-9.53125 15.957031-2.351562 8.773437-1.144531 17.9375 3.398438 25.800781 4.539062 7.863281 11.871094 13.492188 20.644531 15.84375 2.929688.785156 5.898438 1.171875 8.851563 1.171875 3.316406 0 6.605468-.507813 9.785156-1.476563 21.652344 27.855469 49.410156 51.011719 80.652344 67.207032 34.386718 17.828125 73.171875 27.253906 112.160156 27.253906 39.054688 0 77.894531-9.453125 112.324219-27.335938 31.179687-16.195312 58.875-39.316406 80.488281-67.125 3.179688.96875 6.464844 1.476563 9.78125 1.476563 2.953125 0 5.925781-.390625 8.855469-1.175781 8.773437-2.351563 16.105469-7.976563 20.644531-15.839844 4.542969-7.867188 5.746094-17.027344 3.394531-25.800781-1.660156-6.199219-4.964843-11.675781-9.53125-15.960938zm-225.957031-312.238281c-7.71875 0-14-6.28125-14-14s6.28125-14 14-14 14 6.28125 14 14-6.28125 14-14 14zm-107.710938 340.894531c6.242188-36.511719 37.8125-63.464843 75.414063-63.464843h22.296875v52.285156c0 5.519531 4.476562 10 10 10s10-4.480469 10-10v-52.285156h22.296875c37.652344 0 69.179687 26.933593 75.414063 63.464843-28.648438 25.550781-66.394532 41.105469-107.710938 41.105469s-79.0625-15.554688-107.710938-41.105469zm65.339844-138.535156h15.605469c17.152344 0 33.453125-6.457031 45.859375-17.953125l23.273438 13.675781v16.976563c0 23.363281-19.007813 42.367187-42.371094 42.367187-23.359375 0-42.367188-19.003906-42.367188-42.367187zm84.742188-27.472656-19.96875-11.730469c-4.210938-2.476562-9.59375-1.542969-12.730469 2.199219-9.054687 10.804687-22.335937 17.003906-36.4375 17.003906h-15.605469v-15.503906c0-23.363281 19.007813-42.371094 42.371094-42.371094s42.371094 19.007813 42.371094 42.371094zm119.628906 45.113281c0 39.570312-14.269531 75.867188-37.921875 104.03125-5.148437-15.804688-14.332031-30.128906-26.867187-41.523438-14.65625-13.320312-32.878907-21.695312-52.296876-24.242187 10.796876-11.21875 17.457032-26.445313 17.457032-43.207031v-48.203125c0-34.390625-27.980469-62.371094-62.371094-62.371094s-62.371094 27.980469-62.371094 62.371094v48.203125c0 16.757812 6.65625 31.980468 17.449219 43.199218-37.113281 4.820313-67.804687 30.605469-79.179687 65.746094-23.636719-28.160156-37.898438-64.445312-37.898438-104.003906 0-89.328125 72.671875-162 162-162 21.363281 0 42.035156 4.078125 61.539062 12.105469 2.414063 42.585937 37.8125 76.496093 80.992188 76.496093.636719 0 1.261719-.035156 1.894531-.046874 11.507813 22.617187 17.574219 47.882812 17.574219 73.445312zm-19.46875-93.398438c-33.707031 0-61.132812-27.425781-61.132812-61.132812 0-33.710938 27.425781-61.136719 61.132812-61.136719 33.710938 0 61.136719 27.425781 61.136719 61.136719 0 33.707031-27.425781 61.132812-61.136719 61.132812zm-348.804688 223.921876c-3.613281-.96875-6.628906-3.285157-8.5-6.523438-1.871093-3.238281-2.367187-7.011719-1.398437-10.621094.96875-3.613281 3.285156-6.632812 6.523437-8.503906 2.15625-1.246094 4.550782-1.882812 6.976563-1.882812 1.21875 0 2.441406.160156 3.648437.484374 3.609376.96875 6.628907 3.285157 8.5 6.523438 1.871094 3.238281 2.367188 7.011719 1.398438 10.621094-.96875 3.613281-3.285156 6.632812-6.523438 8.5-3.238281 1.875-7.011718 2.367187-10.625 1.402344zm421.046876-6.523438c-1.871094 3.238281-4.886719 5.554688-8.5 6.523438-3.613282.96875-7.386719.46875-10.625-1.398438-3.238282-1.871094-5.554688-4.890625-6.519532-8.503906-.96875-3.609375-.472656-7.382813 1.394532-10.621094 1.871093-3.238281 4.890624-5.554688 8.503906-6.523438 1.203125-.320312 2.429687-.480468 3.644531-.480468 2.425781 0 4.820313.636718 6.980469 1.882812 3.238281 1.867188 5.554687 4.886719 6.519531 8.5.96875 3.609375.472656 7.382813-1.398437 10.621094zm0 0"/><path d="m405.441406 90.910156-23.90625 23.902344-10.578125-10.582031c-3.90625-3.902344-10.238281-3.90625-14.144531 0-3.902344 3.90625-3.90625 10.234375 0 14.140625l17.652344 17.65625c1.875 1.875 4.421875 2.925781 7.070312 2.925781 2.652344 0 5.199219-1.050781 7.074219-2.925781l30.972656-30.976563c3.90625-3.90625 3.90625-10.238281 0-14.144531-3.902343-3.902344-10.234375-3.902344-14.140625.003906zm0 0"/><path d="m78.570312 112.570312c2.628907 0 5.210938-1.070312 7.070313-2.929687s2.929687-4.441406 2.929687-7.070313c0-2.632812-1.070312-5.210937-2.929687-7.070312s-4.441406-2.929688-7.070313-2.929688c-2.628906 0-5.210937 1.070313-7.070312 2.929688s-2.929688 4.4375-2.929688 7.070312c0 2.628907 1.070313 5.210938 2.929688 7.070313s4.441406 2.929687 7.070312 2.929687zm0 0"/></svg>