<svg id="Capa_1" enable-background="new 0 0 511.967 511.967" height="512" viewBox="0 0 511.967 511.967" width="512" xmlns="http://www.w3.org/2000/svg"><g><g><g clip-rule="evenodd" fill-rule="evenodd"><path d="m78.678 236.639 42.513 81.165c8.885 4.216 14.824 12.202 12.935 24.696l19.082 36.43 49.702 46.24-40.2 49.298c-10.428 12.787-28.5 30-45 30h217.499c-16.5 0-23.921-14.672-30-30l-21.302-53.715-85.789-56.337-85.842-133.503-4.467-49.452-33.375-5.5z" fill="#d1a184"/><path d="m186.903 256.484 11.215 107.932 22.497 14.774 50.284-19.986-15.563-31.263c-8.202-5.743-10.965-13.095-10.229-20.548l-14.068-28.26 21.555-125.275 60.745-72.288-39.726 1.899-50.579 52.861-24.879 82.748c6.636 14.15 6.131 30.757-11.252 37.406z" fill="#d1a184"/><path d="m186.903 256.484 2.346 22.577c37.211-1.975 47.14-57.03 17.398-88.234l-8.493 28.25c6.637 14.151 6.132 30.758-11.251 37.407zm6.059 58.311 5.156 49.621 22.497 14.774 50.284-19.986-15.563-31.263c-8.202-5.743-10.965-13.095-10.229-20.548l-13.572-27.264c-12.682 20.36-12.955 46.951 11 66.138l-19.352 7.692-8.721-5.727z" fill="#c97e67"/><path d="m360.882 323.438-140.267 55.751 63.292 41.563 104.371-64.691c-.559-1.553-1.001-3.246-1.312-5.085 2.077-8.666 6.919-13.791 13.037-16.258l32.274-149.029-25.07-22.436z" fill="#d1a184"/><path d="m369.585 367.648 18.693-11.586c-.559-1.553-1.001-3.246-1.312-5.085 2.077-8.666 6.919-13.791 13.037-16.258l5.197-23.997c-18.547 2.321-35.187 14.452-41.183 39.474 1.119 6.636 3.034 12.432 5.568 17.452zm-123.435 1.392-25.535 10.149 63.292 41.563 21.618-13.306z" fill="#c97e67"/><path d="m26.992 267.219c19.021 10.353 62.023-.697 51.686-30.58-21.216-23.446-51.603 8.924-51.686 30.58zm309.145 8.834c24.837-19.57-5.39-52.091-26.99-53.648-11.623 18.271-3.528 61.925 26.99 53.648zm96.14-90.363c11.373 29.504 51.363 10.214 59.222-9.965-14.03-16.496-58.13-21.637-59.222 9.965zm-135.342-169.54c-1.422 22.331 26.895 55.458 49.508 33.994 12.327-29.119-29.833-43.041-49.508-33.994zm-149.721 63.24c-1.376 21.612 26.76 55.957 49.508 33.994 12.326-29.119-29.833-43.041-49.508-33.994zm-107.671-14.417c-1.376 21.612 26.76 55.957 49.508 33.994 12.326-29.119-29.833-43.041-49.508-33.994zm-21.497 90.325c4.023 21.279 39.794 47.579 56.389 20.662 4.725-31.265-39.57-34.304-56.389-20.662z" fill="#6ad34d"/><path d="m157.317 147.466c-20.764-9.547-61.487 5.696-49.508 33.994 22.748 21.964 50.884-12.381 49.508-33.994zm229.649 203.511c5.139 30.453 47.758 21.084 60.021 2.04-10.957-19.861-52.822-32.077-60.021-2.04zm-252.839-8.478c4.631-30.643-38.882-34.861-56.388-20.662 4.023 21.278 39.794 47.578 56.388 20.662zm42.964-145.263c20.989 8.237 38.726 48.188 9.811 59.248-31.598-1.174-26.343-45.26-9.811-59.248zm78.245 130.704c30.937 6.541 36.554-37.501 23.917-55.087-22.441 2.9-49.255 37.346-23.917 55.087zm196.031-51.552c26.381 17.432 47.76-21.481 42.454-42.476-20.999-5.296-59.9 16.103-42.454 42.476zm1.012-188.91c-21.486-2.705-57.5 23.261-36.98 47.319 27.378 13.689 45.28-25.876 36.98-47.319zm-103.717 61.054c-17.567-12.663-61.617-7.113-55.123 23.833 18.096 25.93 52.315-2.36 55.123-23.833zm-2.219-98.388c-4.725 31.265 39.569 34.304 56.388 20.662-4.023-21.279-39.794-47.579-56.388-20.662zm-94.792 13.068c21.926-22.784-12.465-50.864-34.074-49.452-9.016 19.69 4.975 61.826 34.074 49.452zm-138.938-19.015c22.748 21.964 50.884-12.382 49.508-33.994-19.675-9.047-61.835 4.875-49.508 33.994z" fill="#8edf78"/><path d="m156.115 481.967c-10.54 11.125-24.992 22.5-38.405 22.5h217.499c-13.766 0-21.212-10.214-26.832-22.5zm-48.626-190.324 13.703 26.161c8.885 4.216 14.824 12.202 12.935 24.696l10.983 20.968c3.801-3.528 7.362-7.851 10.578-13.068 5.263-34.82-15.164-57.055-48.199-58.757z" fill="#c97e67"/></g><g><path d="m265.218 478.79-5.53-13.943 13.943-5.529 5.53 13.943zm-11.059-27.888-5.53-13.943 13.943-5.529 5.53 13.943z" fill="#fff"/></g></g><g><path d="m218.96 496.967h15v15h-15z"/><path d="m168.523 479.208 44.641-54.743-53.906-50.152-17.416-33.25c1.017-12.291-4.326-22.663-14.913-28.72-.059-.034-.121-.064-.18-.097l-40.699-77.697-3.472-49.646 18.283 3.013 4.11 45.503 14.704 22.868 12.617-8.113-12.712-19.771-3.014-33.371c2.357.635 4.767.958 7.202.958 4.237 0 8.55-.968 12.792-2.931 16.132-7.462 29.329-28.991 28.241-46.071l-.285-4.468-4.067-1.87c-15.179-6.978-39.191-2.776-52.196 8.937l-11.346-49.894 19.03-44.046c4.057 2.04 8.355 3.081 12.736 3.081 4.237 0 8.55-.968 12.792-2.931 16.132-7.462 29.329-28.991 28.241-46.071l-.285-4.468-4.067-1.87c-15.55-7.148-40.381-2.567-53.14 9.809-8.564 8.307-11.226 19.371-7.566 30.758l-11.913 27.573c-.951-1.234-2.013-2.424-3.185-3.561-12.758-12.374-37.591-16.956-53.141-9.809l-4.067 1.87-.284 4.468c-1.087 17.08 12.109 38.608 28.241 46.071 4.243 1.963 8.555 2.931 12.793 2.931 3.778 0 7.496-.771 11.05-2.291l13.88 61.039-15.811-2.606c-.594-10.138-5.824-18.601-14.977-23.837-15.429-8.826-40.621-7.112-53.913 3.669l-3.477 2.82.832 4.398c3.18 16.816 21.3 34.402 38.778 37.634 2.019.374 4.003.558 5.942.558 4.509 0 8.769-.998 12.638-2.922l2.121 30.333c-6.135-1.926-12.761-1.702-19.384.834-16.598 6.358-31.215 26.948-31.281 44.063l-.017 4.476 3.932 2.141c5.802 3.157 13.099 4.664 20.656 4.664 12.021 0 24.696-3.816 33.024-10.869 2.354-1.994 4.315-4.204 5.898-6.576l23.981 45.783c-12.427-.792-25.561 2.396-33.952 9.202l-3.477 2.82.832 4.398c3.18 16.817 21.301 34.403 38.779 37.634 2.02.373 4.002.557 5.941.557 6.442 0 12.378-2.035 17.388-5.906l14.683 28.032 45.497 42.328-35.76 43.853c-10.738 13.169-26.672 27.24-39.187 27.24v15h86.25v-15h-52.826c7.654-6.391 13.812-13.372 17.391-17.759zm-45.865-455.244c7.191-6.976 21.535-10.496 31.785-8.421-1.745 10.312-10.184 22.435-19.276 26.64-5.809 2.687-11.091 1.923-16.104-2.346-2.183-6.211-1-11.417 3.595-15.873zm-56.061 72.99c-9.092-4.206-17.531-16.328-19.276-26.64 10.25-2.074 24.595 1.447 31.786 8.421 4.595 4.456 5.778 9.661 3.595 15.872-5.014 4.269-10.296 5.035-16.105 2.347zm51.156 64.274c7.191-6.976 21.536-10.497 31.785-8.421-1.745 10.312-10.184 22.435-19.276 26.64-5.81 2.688-11.091 1.922-16.104-2.347-2.182-6.211-.999-11.416 3.595-15.872zm-65.571 18.347c-9.852-1.821-21.032-11.474-25.277-21.031 9.417-4.552 24.186-4.694 32.881.28 5.556 3.179 7.993 7.928 7.417 14.486-3.799 5.379-8.724 7.43-15.021 6.265zm15.211 76.58c-7.646 6.476-22.194 9.023-32.281 6.26 2.436-10.17 11.672-21.696 21.027-25.279 5.978-2.289 11.196-1.17 15.91 3.426 1.76 6.344.228 11.457-4.656 15.593zm59.502 83.693c-3.798 5.379-8.725 7.43-15.021 6.266-9.851-1.821-21.031-11.474-25.277-21.031 9.415-4.552 24.185-4.694 32.881.28 5.556 3.179 7.992 7.927 7.417 14.485z"/><path d="m501.092 232.074-1.097-4.34-4.341-1.095c-16.601-4.184-40.17 4.863-50.449 19.363-5.744 8.102-7.118 17.335-4.145 26.274l-21.639 8.211 16.779-77.48c4.828 3.452 10.692 5.307 17.261 5.319.021.001.038.001.059.001 17.762 0 38.764-13.951 44.968-29.881l1.625-4.171-2.9-3.41c-11.089-13.037-35.54-19.344-52.325-13.499-7.737 2.695-13.501 7.739-16.836 14.477l-12.33-11.035 4.726-16.343c2.074.438 4.139.67 6.175.67 7.125 0 13.917-2.673 19.686-7.93 13.138-11.972 19.243-36.474 13.064-52.435l-1.616-4.175-4.441-.56c-16.977-2.127-39.281 9.707-47.724 25.349-5.54 10.266-4.907 21.347 1.59 30.956l-48.308 167.046-13.472-25.799c7.072-7.932 9.321-18.013 6.117-28.456-5.214-16.992-24.761-32.979-41.831-34.209l-4.465-.322-2.402 3.777c-9.187 14.439-8.002 39.663 2.534 53.978 5.878 7.984 14.189 12.202 23.59 12.202 1.015 0 2.048-.068 3.087-.167l18.355 35.148-75.846 30.146-7.096-14.255c7.476-1.559 13.878-5.96 18.417-12.919 9.712-14.887 9.471-40.137-.517-54.036l-2.612-3.635-4.439.573c-12.619 1.631-26.14 11.483-33.994 23.522l-5.452-10.952 14.529-84.443 37.649-12.446c5.751 5.976 12.985 9.128 20.882 9.128 2.481 0 5.028-.311 7.614-.942 17.267-4.22 34.358-22.807 36.577-39.777l.581-4.439-3.632-2.617c-13.883-10.009-39.133-10.288-54.034-.599-9.027 5.87-13.77 14.867-13.582 25.297l-29.174 9.644 3.383-19.662 59.168-70.411 21.935-20.821c2.397 5.937 6.767 10.895 12.899 14.403 6.661 3.812 15.141 5.657 23.698 5.657 11.264 0 22.662-3.199 30.216-9.325l3.477-2.82-.832-4.398c-3.18-16.816-21.301-34.402-38.778-37.634-5.763-1.064-11.241-.588-16.174 1.305-1.315-5.118-4.102-9.861-8.306-13.939-12.76-12.373-37.593-16.958-53.142-9.807l-4.067 1.87-.285 4.468c-1.087 17.08 12.109 38.608 28.242 46.071 1.33.615 2.666 1.128 4.005 1.549l-11.501 10.917-33.808 1.615-14.618-13.484c5.257-8.568 5.842-18.413 1.435-27.9-7.489-16.12-29.05-29.276-46.117-28.167l-4.467.292-1.864 4.07c-7.125 15.562-2.501 40.386 9.895 53.124 5.883 6.046 13.136 9.147 20.904 9.147 2.716 0 5.495-.384 8.3-1.15l13.056 12.042-40.348 42.168-17.161-14.966c2.686-10.626-.156-20.834-8.183-28.619-12.758-12.374-37.59-16.958-53.141-9.809l-4.067 1.87-.284 4.468c-1.087 17.08 12.109 38.608 28.241 46.071 4.243 1.962 8.555 2.93 12.792 2.93 5.471 0 10.813-1.623 15.716-4.792l17.979 15.679-18.929 62.95c-4.618-5.163-10.028-9.272-15.698-11.497l-4.167-1.636-3.417 2.892c-13.065 11.055-19.437 35.488-13.635 52.289 3.535 10.235 11.188 17.027 21.44 19.328l7.352 70.76-46.999-73.095-12.617 8.113 64.881 100.905 85.139 55.909 20.429 51.512c2.167 5.465 5.175 13.048 9.941 19.735h-59.216v15h86.249v-15c-10.88 0-16.682-9.264-23.027-25.265l-18.989-47.882 92.37-57.252c4.184 5.516 10.205 9.285 17.651 10.813 2.494.512 5.108.756 7.789.756 16.034 0 34.352-8.731 42.29-21.06l2.424-3.764-2.162-3.92c-7.546-13.677-27.106-24.084-43.863-23.978l5.944-27.448 35.067-13.305c4.571 2.359 9.288 3.559 13.956 3.559 5.918 0 11.755-1.896 17.097-5.688 14.495-10.285 23.53-33.864 19.336-50.457zm-193.902-77.65c8.399-5.461 23.153-6.157 32.812-2.148-3.696 9.784-14.31 20.057-24.041 22.435-6.217 1.518-11.254-.248-15.352-5.401-.947-6.516 1.215-11.396 6.581-14.886zm46.485-101.629c3.799-5.378 8.727-7.428 15.021-6.266 9.851 1.821 21.03 11.474 25.277 21.031-9.418 4.551-24.188 4.693-32.882-.28-5.555-3.179-7.991-7.927-7.416-14.485zm-48.963-31.304c10.255-2.074 24.596 1.446 31.786 8.421 4.595 4.456 5.777 9.66 3.595 15.872-5.014 4.27-10.295 5.034-16.104 2.347-9.092-4.207-17.531-16.329-19.277-26.64zm145.109 150.041c9.46-3.297 23.953-.443 32.375 5.758-5.922 8.606-18.66 16.036-28.673 16.036-.012 0-.024 0-.035 0-6.4-.011-10.868-2.931-13.615-8.914.637-6.553 3.904-10.775 9.948-12.88zm-31.029-59.023c4.759-8.815 17.377-16.492 27.777-17.598 1.439 10.359-2.959 24.46-10.363 31.207-4.733 4.312-10.003 5.17-16.063 2.609-3.953-5.265-4.392-10.585-1.351-16.218zm-101.357 150.956c-5.938-8.068-7.489-22.757-4.047-32.633 9.98 3.123 20.852 13.123 23.789 22.7 1.878 6.119.405 11.25-4.502 15.64-6.449 1.325-11.446-.553-15.24-5.707zm-64.41 42.049c2.393-9.728 12.681-20.325 22.469-24.007 3.994 9.666 3.276 24.419-2.197 32.809-3.498 5.361-8.378 7.516-14.894 6.559-5.147-4.106-6.906-9.145-5.378-15.361zm-21.623-252.214c-6.986-7.179-10.532-21.518-8.473-31.771 10.315 1.728 22.451 10.147 26.671 19.232 2.697 5.805 1.94 11.088-2.32 16.107-6.208 2.196-11.414 1.019-15.878-3.568zm-41.03 55.724c-5.013 4.269-10.294 5.032-16.104 2.347-9.092-4.206-17.531-16.328-19.276-26.64 10.251-2.073 24.595 1.447 31.786 8.421 4.594 4.456 5.776 9.66 3.594 15.872zm-17.581 129.879c-3.271-9.469-.382-23.954 5.842-32.359 8.601 5.95 16.004 18.73 15.961 28.748-.027 6.401-2.958 10.861-8.949 13.594-6.552-.656-10.765-3.933-12.854-9.983zm32.419 121.197-10.304-99.167c9.352-5.447 14.64-14.501 14.688-25.577.023-5.419-1.259-11.143-3.496-16.662l23.599-78.481 47.264-49.396 19.598-.937-51.013 60.706-22.314 129.692 14.282 28.69c-.193 9.281 3.952 17.684 11.897 23.898l11.141 22.38-39.081 15.533zm78.813 51.756-47.24-31.022 130.284-51.783 44.029-152.251 12.927 11.568-30.6 141.298c-6.814 4.029-11.64 10.758-13.751 19.563l-.356 1.488.255 1.508c.021.124.052.24.073.363zm153.534-59.159c-7.525 7.261-21.519 12.009-31.328 9.991-6.27-1.287-10.065-5.039-11.564-11.449 1.931-6.295 5.973-9.78 12.315-10.639 9.926-1.339 23.561 4.34 30.577 12.097zm35.516-82.396c-5.219 3.704-10.552 3.92-16.261.639-3.283-5.707-3.071-11.04.63-16.262 5.794-8.173 19.269-14.24 29.709-14.094.171 10.458-5.908 23.92-14.078 29.717z"/></g></g></svg>