<svg height="512pt" viewBox="0 0 512.00158 512" width="512pt" xmlns="http://www.w3.org/2000/svg"><g fill-rule="evenodd"><path d="m104.039062 92.9375 66.21875 3.96875-89.679687-51.011719.734375 28.148438-71.3125-5.3125 95.484375 54.832031zm0 0" fill="#ffba4a"/><path d="m401.46875 10-73.421875 72.488281 62.9375-20.976562 6.527344 29.960937 78.039062-77.679687-67.507812 23.585937zm0 0" fill="#ffba4a"/><path d="m502 185.679688-101.863281 24.613281-10-26.246094-44.796875 11.195313v17.34375c6.410156 4.246093 10.660156 11.523437 10.660156 19.746093v18.285157l23.515625-5.871094 10 45.867187zm0 0" fill="#ffba4a"/><path d="m345.339844 195.242188v-21.507813c0-13.015625-10.652344-23.667969-23.667969-23.667969-12.976563 0-23.605469 10.597656-23.667969 23.554688v35.046875h34.328125c4.796875 0 9.269531 1.445312 13.007813 3.917969zm0 0" fill="#f4cdac"/><path d="m298.003906 173.738281v-.117187zm0 34.929688h-23.667968c-13.011719 0-23.667969 10.652343-23.667969 23.664062v-66.664062c0-13.011719 10.652343-23.667969 23.671875-23.667969 13.015625 0 23.664062 10.652344 23.664062 23.667969zm0 0" fill="#f4cdac"/><path d="m250.667969 232.335938v-58.601563c0-13.015625-10.648438-23.664063-23.664063-23.664063-13.019531 0-23.667968 10.660157-23.667968 23.664063v7.953125.113281 52.105469.113281 22.488281c0 13.003907 10.660156 23.664063 23.667968 23.664063 13.011719 0 23.664063-10.648437 23.664063-23.664063zm0 0" fill="#f4cdac"/><path d="m203.335938 233.90625v-52.21875c-.0625-12.964844-10.6875-23.550781-23.664063-23.550781-13.019531 0-23.671875 10.660156-23.671875 23.667969l.003906 51.898437-.003906.203125c0 2.878906.523438 5.640625 1.476562 8.199219 3.355469 9.003906 12.058594 15.46875 22.195313 15.46875 12.976563 0 23.601563-10.585938 23.664063-23.550781zm0 0" fill="#f4cdac"/><path d="m274.335938 208.667969c-13.011719 0-23.667969 10.652343-23.667969 23.664062 0 13.015625 10.652343 23.667969 23.667969 23.667969h24.351562c-20.910156.058594-40.566406 8.414062-55 22.660156l-87.050781 21.734375c2.914062 25.753907 15.710937 48.628907 34.476562 64.703125l-10 136.902344h132.875l-10-125.183594c31.03125-17.027344 52.011719-49.941406 52.011719-87.652344v-56.832031c0-8.222656-4.25-15.5-10.660156-19.746093-3.738282-2.472657-8.210938-3.917969-13.003906-3.917969zm0 0" fill="#f4cdac"/><path d="m203.335938 234.023438c-.0625 12.964843-10.6875 23.550781-23.664063 23.550781-10.136719 0-18.839844-6.464844-22.195313-15.46875l-24.992187 6.339843-10-45.871093-112.484375 114.933593 105.363281-35.550781 10 26.246094 31.277344-7.808594 87.046875-21.734375c14.4375-14.25 34.089844-22.601562 55-22.660156h-24.351562c-13.015626 0-23.664063-10.652344-23.664063-23.667969v24.175781c0 13.015626-10.65625 23.667969-23.667969 23.667969-13.007812 0-23.667968-10.660156-23.667968-23.667969zm0 0" fill="#ffba4a"/></g><path d="m221.386719 315.535156c-5.398438-1.035156-10.625 2.484375-11.695313 7.878906l-.050781.261719c-1.003906 5.402344 2.539063 10.605469 7.9375 11.644531.640625.125 1.277344.183594 1.90625.183594 4.671875 0 8.84375-3.289062 9.796875-8.039062.003906-.03125.015625-.082032.023438-.132813l.027343-.148437c1.007813-5.40625-2.542969-10.609375-7.945312-11.648438zm0 0"/><path d="m510.804688 180.9375c-2.152344-4-6.734376-6.046875-11.152344-4.980469l-93.304688 22.546875-6.867187-18.015625c-1.800781-4.730469-6.855469-7.371093-11.769531-6.140625l-32.371094 8.089844v-8.703125c0-18.5625-15.105469-33.667969-33.667969-33.667969-7.355469 0-14.160156 2.378906-19.707031 6.398438-6.085938-8.734375-16.199219-14.464844-27.625-14.464844-11.429688 0-21.542969 5.722656-27.632813 14.453125-5.542969-4.011719-12.351562-6.382813-19.703125-6.382813-11.429687 0-21.539062 5.730469-27.628906 14.460938-5.542969-4.015625-12.347656-6.394531-19.703125-6.394531-18.566406 0-33.667969 15.101562-33.667969 33.667969v52.101562c0 .261719.011719.523438.019532.785156l-5.96875 1.515625-7.796876-35.765625c-1.179687-5.394531-6.503906-8.816406-11.902343-7.640625-5.394531 1.175781-8.816407 6.503907-7.640625 11.902344l10 45.867187c.578125 2.648438 2.207031 4.949219 4.511718 6.375 1.59375.988282 3.417969 1.496094 5.257813 1.496094.824219 0 1.648437-.101562 2.460937-.308594l17.511719-4.441406c6.128907 8.402344 16.039063 13.878906 27.214844 13.878906 5.214844 0 10.160156-1.191406 14.574219-3.320312 1.296875 5.492188 3.941406 10.464844 7.566406 14.554688l-70.261719 17.546874-6.839843-17.957031c-1.914063-5.019531-7.453126-7.632812-12.542969-5.914062l-65.851563 22.21875 35.078125-35.84375c3.863281-3.949219 3.792969-10.28125-.152343-14.144531-3.945313-3.863282-10.277344-3.792969-14.140626.152343l-64.246093 65.652344c-3.234375 3.304687-3.78125 8.394531-1.320313 12.3125 1.867188 2.976563 5.101563 4.683594 8.46875 4.683594 1.066406 0 2.144532-.171875 3.195313-.527344l96.246093-32.476563 6.574219 17.257813c1.804688 4.730469 6.855469 7.367187 11.769531 6.140625l20.8125-5.195312c4.816407 21.695312 16.214844 41.386718 32.191407 56.46875l-9.648438 132.09375c-.203125 2.769531.757813 5.5 2.648438 7.535156s4.542969 3.191406 7.324219 3.191406h132.875c2.789062 0 5.453124-1.164062 7.347656-3.214844 1.890625-2.050781 2.84375-4.796875 2.621094-7.582031l-9.503907-118.945313c31.957031-20.074218 51.546875-55.167968 51.546875-93.09375v-30.738281l5.9375-1.480469 7.808594 35.800782c.765625 3.511718 3.355469 6.34375 6.789062 7.414062.976563.308594 1.980469.457032 2.980469.457032 2.496094 0 4.941407-.9375 6.820313-2.6875l112.484375-104.9375c3.320312-3.101563 4.136719-8.050782 1.980469-12.054688zm-189.132813-20.871094c7.539063 0 13.667969 6.132813 13.667969 13.667969v25.074219c-.988282-.085938-1.992188-.140625-3.003906-.140625h-24.332032v-24.929688c0-7.539062 6.132813-13.671875 13.667969-13.671875zm-47.332031-8.066406c7.535156 0 13.664062 6.132812 13.664062 13.667969v33h-13.667968c-4.863282 0-9.484376 1.042969-13.664063 2.910156v-35.910156c0-7.535157 6.128906-13.667969 13.667969-13.667969zm-47.335938 8.070312c7.535156 0 13.667969 6.128907 13.667969 13.664063v82.777344c0 7.535156-6.132813 13.664062-13.667969 13.664062s-13.667968-6.128906-13.667968-13.664062v-22.585938c0-.007812 0-.011719 0-.019531 0-.003906 0-.003906 0-.007812v-52.085938c0-.003906 0-.003906 0-.007812 0-.007813 0-.015626 0-.019532v-8.050781c0-7.535156 6.132812-13.664063 13.667968-13.664063zm-47.332031 87.503907c-7.539063 0-13.667969-6.132813-13.667969-13.726563 0-.046875 0-.09375 0-.144531v-51.898437c0-7.535157 6.128906-13.667969 13.667969-13.667969 7.53125 0 13.660156 6.125 13.664063 13.65625v52.125c-.003907 7.53125-6.132813 13.65625-13.664063 13.65625zm166.328125 41.589843c0 32.8125-17.941406 63.039063-46.820312 78.882813-3.453126 1.894531-5.472657 5.640625-5.160157 9.566406l9.140625 114.386719h-111.289062l7.917968-108.402344c5.878907 3.535156 12.121094 6.535156 18.671876 8.929688 5.1875 1.898437 10.929687-.769532 12.828124-5.957032 1.894532-5.1875-.773437-10.925781-5.957031-12.824218-29.140625-10.65625-50.898437-35.980469-57.335937-65.878906l51.785156-12.933594c-1.675781 4.640625.289062 9.917968 4.785156 12.257812 1.472656.769532 3.050782 1.128906 4.605469 1.128906 3.609375 0 7.097656-1.960937 8.878906-5.386718 3.28125-6.300782 7.441407-11.941406 12.28125-16.808594.253907-.226562.496094-.460938.726563-.710938 12.585937-12.28125 29.613281-19.414062 47.839844-19.414062h9.769531c5.523437 0 10-4.476562 10-10s-4.476563-10-10-10h-34.332031c-7.535157 0-13.667969-6.132812-13.667969-13.667969 0-7.535156 6.132812-13.664062 13.667969-13.664062h57.996093c2.707031 0 5.222657.796875 7.347657 2.160156.113281.078125.234374.152344.355468.226563 3.597656 2.464843 5.964844 6.597656 5.964844 11.277343zm49.542969-17.847656-6.253907-28.699218c-.578124-2.644532-2.199218-4.941407-4.496093-6.367188s-5.074219-1.863281-7.699219-1.207031l-11.09375 2.769531v-5.476562c0-9.675782-4.105469-18.402344-10.660156-24.546876v-4.734374l28.609375-7.152344 6.84375 17.953125c1.789062 4.703125 6.796875 7.339843 11.691406 6.160156l64.847656-15.667969zm0 0"/><path d="m331.207031 91.976562 52.375-17.457031 4.160157 19.082031c.777343 3.570313 3.441406 6.429688 6.945312 7.460938.929688.277344 1.882812.410156 2.824219.410156 2.609375 0 5.15625-1.019531 7.058593-2.914062l78.035157-77.675782c3.308593-3.296874 3.894531-8.441406 1.417969-12.398437-2.476563-3.953125-7.363282-5.667969-11.773438-4.128906l-57.066406 19.9375-3.992188-16.625c-.84375-3.507813-3.507812-6.292969-6.980468-7.28125-3.464844-.992188-7.203126-.035157-9.769532 2.5l-73.421875 72.488281c-3.308593 3.265625-3.925781 8.382812-1.496093 12.34375 2.433593 3.960938 7.273437 5.726562 11.683593 4.257812zm64.675781-62.40625 2.433594 10.144532c.660156 2.75 2.453125 5.089844 4.933594 6.445312 2.480469 1.351563 5.421875 1.59375 8.089844.660156l25.972656-9.074218-33.917969 33.761718-2.640625-12.125c-.605468-2.773437-2.359375-5.15625-4.828125-6.5625-1.523437-.867187-3.226562-1.308593-4.945312-1.308593-1.0625 0-2.128907.171875-3.160157.515625l-22.167968 7.386718zm0 0"/><path d="m5.023438 77.402344 95.480468 54.832031c1.542969.886719 3.261719 1.328125 4.980469 1.328125 1.808594 0 3.613281-.488281 5.210937-1.464844 3.117188-1.90625 4.949219-5.359375 4.777344-9.003906l-.921875-19.507812 55.105469 3.304687c4.628906.273437 8.863281-2.679687 10.1875-7.136719 1.320312-4.457031-.601562-9.238281-4.644531-11.539062l-89.679688-51.015625c-3.132812-1.78125-6.988281-1.738281-10.082031.117187-3.097656 1.851563-4.949219 5.230469-4.855469 8.835938l.445313 17.09375-60.285156-4.488282c-4.660157-.34375-8.929688 2.574219-10.300782 7.035157-1.371094 4.464843.53125 9.285156 4.582032 11.609375zm75.546874 6.609375c2.824219.214843 5.597657-.78125 7.644532-2.730469s3.171875-4.675781 3.097656-7.5l-.273438-10.433594 36.925782 21.003906-23.328125-1.398437c-2.839844-.171875-5.605469.871094-7.625 2.867187-2.019531 1.992188-3.097657 4.75-2.964844 7.585938l.585937 12.394531-41.496093-23.832031zm0 0"/><path d="m87.371094 224.15625-.1875.195312c-3.855469 3.953126-3.773438 10.285157.179687 14.140626 1.945313 1.894531 4.464844 2.835937 6.980469 2.835937 2.601562 0 5.203125-1.007813 7.160156-3.019531l.1875-.191406c3.855469-3.957032 3.773438-10.285157-.179687-14.140626-3.957031-3.855468-10.285157-3.773437-14.140625.179688zm0 0"/></svg>