<svg id="Capa_1" enable-background="new 0 0 512 512" height="512" viewBox="0 0 512 512" width="512" xmlns="http://www.w3.org/2000/svg"><g><path d="m385.962 47.797h-37.823v19.029l-50.177 31.342h88c1.657 0 3-1.343 3-3v-44.371c0-1.657-1.343-3-3-3z" fill="#01d0fb"/><path d="m297.962 98.169 50.177-31.342h-50.177z" fill="#3675bb"/><g><path d="m348.139 66.827h-92.139v-50.372h89.139c1.657 0 3 1.343 3 3z" fill="#01c0fa"/></g><g><path d="m86.975 256h38.891v167.905h-38.891z" fill="#dff6fd"/><path d="m86.975 256h16.134v167.905h-16.134z" fill="#c8effe"/><path d="m161.765 256h38.891v167.905h-38.891z" fill="#dff6fd"/><path d="m161.765 256h16.344v167.905h-16.344z" fill="#c8effe"/><path d="m236.555 256h38.891v167.905h-38.891z" fill="#dff6fd"/><path d="m236.555 256h16.555v167.905h-16.555z" fill="#c8effe"/><path d="m311.344 256h38.891v167.905h-38.891z" fill="#dff6fd"/><path d="m311.344 256h16.765v167.905h-16.765z" fill="#c8effe"/><path d="m386.134 256h38.891v167.905h-38.891z" fill="#dff6fd"/><path d="m386.134 256h16.975v167.905h-16.975z" fill="#c8effe"/></g><path d="m63.821 224.567v26.433c0 2.761 2.239 5 5 5h374.359c2.761 0 5-2.239 5-5v-26.433z" fill="#8bc2ea"/><path d="m106 251v-26.433h-42.179v26.433c0 2.761 2.239 5 5 5h42.179c-2.761 0-5-2.239-5-5z" fill="#77abdb"/><path d="m448.179 461.845v-32.939c0-2.761-2.239-5-5-5h-374.358c-2.761 0-5 2.239-5 5v32.939z" fill="#8bc2ea"/><path d="m106 461.845v-32.939c0-2.761 2.239-5 5-5h-42.179c-2.761 0-5 2.239-5 5v32.939z" fill="#77abdb"/><g><path d="m464.8 504.5h-417.6c-2.761 0-5-2.239-5-5v-33.655c0-2.761 2.239-5 5-5h417.6c2.761 0 5 2.239 5 5v33.655c0 2.761-2.239 5-5 5z" fill="#dff6fd"/></g><g><path d="m84.401 499.5v-33.655c0-2.761 2.239-5 5-5h-42.201c-2.761 0-5 2.239-5 5v33.655c0 2.761 2.239 5 5 5h42.2c-2.761 0-4.999-2.239-4.999-5z" fill="#c8effe"/></g><g><path d="m256 97.23-209.722 123.614c-1.755 1.034-1.021 3.723 1.016 3.723h417.413c2.037 0 2.77-2.689 1.016-3.723z" fill="#dff6fd"/></g><g><path d="m91.568 220.844 187.077-110.267-22.645-13.347-209.722 123.614c-1.755 1.034-1.021 3.723 1.016 3.723h45.29c-2.037 0-2.77-2.688-1.016-3.723z" fill="#c8effe"/></g><g><circle cx="256" cy="169.249" fill="#3675bb" r="25.745"/></g><g><path d="m250.509 169.249c0-10.623 6.435-19.741 15.618-23.674-3.109-1.332-6.531-2.071-10.127-2.071-14.219 0-25.745 11.527-25.745 25.745s11.527 25.745 25.745 25.745c3.596 0 7.019-.74 10.127-2.071-9.183-3.933-15.618-13.051-15.618-23.674z" fill="#2b68b6"/></g><g><path d="m464.8 453.345h-9.121v-16.345c0-6.275-.693-10.667-2.182-13.82-2.032-4.306-5.793-6.775-10.318-6.775h-10.654v-152.905h10.654c6.893 0 12.5-5.607 12.5-12.5v-18.933h9.027c4.34 0 8.023-2.813 9.165-7 1.142-4.188-.603-8.481-4.342-10.684l-92.244-54.371c-3.566-2.103-8.165-.916-10.27 2.652-2.103 3.569-.916 8.167 2.653 10.27l74.874 44.133h-377.085l188.543-111.13 83.475 49.201c3.567 2.104 8.166.916 10.269-2.653 2.104-3.568.916-8.166-2.653-10.27l-83.591-49.27v-18.618h26.962v23.842c0 4.142 3.358 7.5 7.5 7.5h88c5.79 0 10.5-4.71 10.5-10.5v-44.372c0-5.79-4.71-10.5-10.5-10.5h-30.323v-20.842c0-5.79-4.71-10.5-10.5-10.5h-81.639v-1.455c0-4.142-3.358-7.5-7.5-7.5s-7.5 3.358-7.5 7.5v85.445l-206.029 121.438c-3.739 2.204-5.484 6.497-4.342 10.685 1.142 4.187 4.825 7 9.165 7h9.027v18.932c0 6.893 5.607 12.5 12.5 12.5h10.654v152.905h-10.654c-6.893 0-12.5 5.607-12.5 12.5v24.439h-9.121c-6.893 0-12.5 5.607-12.5 12.5v33.656c0 6.893 5.607 12.5 12.5 12.5h417.6c6.893 0 12.5-5.607 12.5-12.5v-33.655c0-6.893-5.608-12.5-12.5-12.5zm-159.338-368.704v-10.314h16.513zm46.681-11.48c2.099-1.33 3.496-3.666 3.496-6.334v-11.53h25.823v35.372h-57.342zm-88.643-49.206h77.139v35.372h-77.139zm94.235 392.45v-152.905h20.899v152.905zm-157.079-36.905c-4.142 0-7.5 3.358-7.5 7.5v28.286h-23.891v-151.786h23.891v88.5c0 4.142 3.358 7.5 7.5 7.5s7.5-3.358 7.5-7.5v-88.5h20.899v152.905h-20.899v-29.405c0-4.142-3.358-7.5-7.5-7.5zm43.399 35.786v-151.786h23.891v151.786zm38.89-151.786h20.899v152.905h-20.899zm35.899 151.786v-151.786h23.891v151.786zm98.681 0h-23.891v-151.786h23.891zm-346.204-183.219h369.358v16.433h-369.358zm47.045 31.433v151.786h-23.891v-151.786zm15 0h20.899v152.905h-20.899zm328.934 233.5h-412.6v-28.655h306.3c4.142 0 7.5-3.358 7.5-7.5s-3.358-7.5-7.5-7.5h-284.679v-21.939h369.036c.168 1.14.322 2.915.322 5.595v16.345h-49.679c-4.142 0-7.5 3.358-7.5 7.5s3.358 7.5 7.5 7.5h71.3z"/><path d="m222.754 169.249c0 18.332 14.914 33.245 33.246 33.245s33.246-14.914 33.246-33.245-14.914-33.246-33.246-33.246-33.246 14.914-33.246 33.246zm51.492 0c0 10.061-8.185 18.245-18.246 18.245s-18.246-8.185-18.246-18.245 8.185-18.246 18.246-18.246 18.246 8.185 18.246 18.246z"/></g></g></svg>