<svg id="Capa_1" enable-background="new 0 0 512.047 512.047" height="512" viewBox="0 0 512.047 512.047" width="512" xmlns="http://www.w3.org/2000/svg"><g><g><g clip-rule="evenodd" fill-rule="evenodd"><path d="m212.426 230.61c87.626-114.171-80.788-205.662-150.916-221.52-10.91 71.066 12.597 261.281 150.916 221.52z" fill="#aae79a"/><path d="m186.841 286.18c-90.231-55.229-144.094 74.952-150.266 127.441 52.792 2.482 190.021-29.403 150.266-127.441z" fill="#aae79a"/><path d="m242.214 270.401c-79.991 158.548 145.206 230.76 233.868 233.868-3.108-88.661-75.319-313.859-233.868-233.868z" fill="#aae79a"/><path d="m279.339 206.506c112.395 68.796 179.49-93.363 187.178-158.746-65.76-3.091-236.699 36.626-187.178 158.746z" fill="#aae79a"/><path d="m212.426 230.61c5.772-7.521 10.405-14.94 14.056-22.25-123.011 34.552-154.67-113.51-152.171-195.848-4.534-1.372-8.832-2.525-12.801-3.422-10.91 71.066 12.597 261.281 150.916 221.52z" fill="#6ad34d"/><path d="m40.992 391.24c-2.177 8.306-3.659 15.932-4.417 22.38 48.651 2.287 169.01-24.614 156.478-105.578-10.285 61.462-106.167 83.7-152.061 83.198z" fill="#6ad34d"/><path d="m279.339 206.506c8.057 4.932 15.874 8.64 23.461 11.319-30.555-93.804 54.208-147.932 125.958-168.165-76.511 9.617-191.117 54.018-149.419 156.846z" fill="#6ad34d"/><path d="m236.509 282.874c-62.342 149.861 153.273 218.371 239.573 221.396-.243-6.925-.907-14.683-2.001-23.064-86.641-6.956-269.374-69.025-237.572-198.332z" fill="#6ad34d"/></g><g><path d="m428.073 466.866-10.607-10.607 10.606-10.606 10.607 10.607zm-343.648-83.992-9.702-11.439 11.44-9.702 9.702 11.439zm338.008-287.914-9.729-11.417 11.418-9.729 9.728 11.417zm-325.761-20.938-8.445-12.396 12.396-8.445 8.445 12.396z" fill="#fff"/></g></g><g><path d="m385.841 296.976 10.594-10.62c-3.848-3.838-7.749-7.398-11.593-10.581l-9.564 11.556c3.488 2.888 7.042 6.133 10.563 9.645z"/><path d="m483.578 504.007c-1.646-46.94-23.876-144.417-76.521-206.156l-11.414 9.732c27.125 31.81 44.18 72.52 53.711 101.07 10.002 29.96 16.829 62.018 18.771 87.653-61.332-4.722-179.146-39.175-220.667-109.356-18.398-31.097-19.39-65.94-2.994-103.693l162.395 162.395 10.606-10.606-162.391-162.392c39.794-17.28 76.331-15.222 108.724 6.178l8.269-12.516c-38.215-25.245-81.102-27.028-127.551-5.356l-6.627-8.852 42.287-36.425c17.773 10.021 35.234 15.053 52.244 15.053 13.346 0 26.417-3.089 39.143-9.271 34.559-16.79 58.473-52.964 72.449-80.354 18.28-35.826 27.459-71.26 29.954-92.475l.939-7.99-8.036-.377c-21.335-1.006-57.794 2.268-96.125 14.452-29.304 9.316-68.897 27.002-91.105 58.356-18.616 26.284-21.69 56.941-9.189 91.188l-41.571 35.808-7.109-9.495c23.06-32.272 28.738-65.276 16.844-98.177-14.201-39.283-50.624-69.302-78.678-87.569-36.735-23.919-74.075-37.925-96.772-43.058l-7.847-1.774-1.221 7.952c-4.999 32.567-2.887 90.036 13.563 139.258l14.227-4.755c-14.349-42.935-17.26-92.318-14.005-124.009 48.181 13.489 134.581 58.075 156.626 119.053 9.581 26.501 5.549 53.367-11.947 79.987l-94.632-138.903-12.396 8.445 94.635 138.909c-26.184 5.493-49.084 2.097-68.192-10.145-18.561-11.892-33.719-31.988-45.053-59.73l-13.886 5.673c12.525 30.659 29.632 53.096 50.847 66.688 15.701 10.06 33.377 15.1 52.83 15.1 10.42 0 21.35-1.448 32.758-4.344l8.016 10.707-31.495 27.128c-25.589-14.142-50.406-15.554-73.836-4.172-52.834 25.668-79.141 106.823-83.03 139.904l-.939 7.989 8.036.378c1.756.083 3.653.125 5.679.125 36.357 0 113.746-13.795 145.904-59.198 15.07-21.277 17.719-46.019 7.91-73.606l30.78-26.513 6.963 9.302c-21.285 44.673-20.927 86.157 1.088 123.366 25.997 43.94 76.704 71.754 114.665 87.35 49.815 20.465 98.064 28.827 126.607 29.827l8.04.282zm-191.698-382.26c33.998-48.001 120.106-66.29 165.979-66.645-7.84 45.2-39.943 127.166-92.851 152.871-22.765 11.06-47.138 10.124-72.573-2.738l118.567-100.535-9.701-11.441-118.568 100.537c-8.538-27.195-5.482-51.395 9.147-72.049zm-116.314 231.623c-15.663 22.115-44.646 34.925-66.201 41.777-24.376 7.75-48.056 10.724-64.054 11.064 2.948-15.727 9.75-38.604 21.375-61.387 10.28-20.147 27.65-46.649 52.026-58.491 8.222-3.995 16.718-5.99 25.448-5.99 9.568 0 19.419 2.4 29.493 7.189l-76.051 64.498 9.702 11.439 76.045-64.494c5.887 20.499 3.29 38.762-7.783 54.395z"/></g></g></svg>