<?xml version="1.0" encoding="UTF-8"?>
<svg xmlns="http://www.w3.org/2000/svg" xmlns:xlink="http://www.w3.org/1999/xlink" xmlns:svgjs="http://svgjs.com/svgjs" version="1.1" width="512" height="512" x="0" y="0" viewBox="0 0 512 512" style="enable-background:new 0 0 512 512" xml:space="preserve" class="">
  <g>
    <g xmlns="http://www.w3.org/2000/svg">
      <path d="m384.501 144.6c0-70.978-57.539-128.517-128.517-128.517s-128.517 57.539-128.517 128.517c-8.284 0-15 6.716-15 15s6.716 15 15 15h257.034c8.284 0 15-6.716 15-15s-6.716-15-15-15z" fill="#ffe2dc" data-original="#ffe2dc" style="" class=""/>
      <path d="m384.501 174.6c8.284 0 15-6.716 15-15s-6.716-15-15-15c0-70.978-57.539-128.517-128.517-128.517v158.517z" fill="#ffc8c4" data-original="#ffc8c4" style="" class=""/>
      <path d="m207.8 195.563h-80.333c-8.284 0-15 6.716-15 15 0 58.267-19.458 93.417-36.625 124.43-14.215 25.68-27.642 49.936-27.642 81.674 0 49.16 26.352 72.655 48.458 83.708 22.987 11.493 45.91 11.625 46.875 11.625 3.246 0 6.404-1.053 9-3 2.869-2.152 70.267-53.973 70.267-164.633v-133.804c0-8.284-6.716-15-15-15z" fill="#0066ff" data-original="#ffa200" style="" class=""/>
      <path d="m304.2 195.563h80.333c8.284 0 15 6.716 15 15 0 58.267 19.458 93.417 36.625 124.43 14.215 25.68 27.642 49.936 27.642 81.673 0 49.16-26.352 72.655-48.458 83.708-22.987 11.494-45.91 11.626-46.875 11.626-3.246 0-6.404-1.053-9-3-2.869-2.152-70.267-53.973-70.267-164.633v-133.804c0-8.284 6.716-15 15-15z" fill="#9500ff" data-original="#ff7b00" style="" class=""/>
      <path d="m377.504 485.039c-.147-.112-14.847-11.478-29.292-34.446-19.261-30.626-29.027-66.366-29.027-106.227 0-8.284-6.716-15-15-15h-96.4c-8.284 0-15 6.716-15 15 0 39.86-9.766 75.6-29.027 106.227-14.445 22.969-29.145 34.334-29.24 34.407-5.165 3.874-7.272 10.618-5.23 16.744 2.042 6.125 7.774 10.256 14.23 10.256h224.934c6.457 0 12.214-4.112 14.256-10.237s-.039-12.85-5.204-16.724z" fill="#ffc8c4" data-original="#ffc8c4" style="" class=""/>
      <path d="m382.708 501.763c2.042-6.125-.04-12.85-5.205-16.724-.147-.112-14.847-11.478-29.292-34.446-19.261-30.626-29.027-66.366-29.027-106.227 0-8.284-6.716-15-15-15h-48.201v182.634h112.468c6.457 0 12.215-4.112 14.257-10.237z" fill="#ffacac" data-original="#ffaeac" style="" class=""/>
      <path d="m256 367.4c-79.145 0-143.533-64.389-143.533-143.533 0-8.284 6.716-15 15-15h257.066c8.284 0 15 6.716 15 15 0 79.144-64.388 143.533-143.533 143.533z" fill="#ffe2dc" data-original="#ffe2dc" style="" class=""/>
      <path d="m399.533 223.867c0-8.284-6.716-15-15-15h-128.549v158.533h.016c79.145 0 143.533-64.389 143.533-143.533z" fill="#ffc8c4" data-original="#ffc8c4" style="" class=""/>
      <path d="m399.533 159.6v-16.083c0-79.283-64.133-143.517-143.533-143.517-.003 0-.005 0-.008 0s-.005 0-.008 0c-79.249 0-143.517 64.124-143.517 143.517v16.083c8.284 0 15-6.716 15-15 70.978 0 128.517-57.539 128.517-128.517 0 70.978 57.539 128.517 128.517 128.517 0 8.284 6.748 15 15.032 15z" fill="#00aeff" data-original="#ffd200" style="" class=""/>
      <path d="m384.501 144.6c0 8.284 6.748 15 15.032 15v-16.083c0-79.283-64.133-143.517-143.533-143.517-.003 0-.005 0-.008 0s-.005 0-.008 0v16.083c0 70.978 57.539 128.517 128.517 128.517z" fill="#0066ff" data-original="#ffa200" style="" class=""/>
      <path d="m272.066 303.133h-32.133c-8.284 0-15-6.716-15-15s6.716-15 15-15h32.133c8.284 0 15 6.716 15 15s-6.715 15-15 15z" fill="#ffc8c4" data-original="#ffc8c4" style="" class=""/>
      <path d="m287.066 288.133c0-8.284-6.716-15-15-15h-16.083v30h16.083c8.285 0 15-6.716 15-15z" fill="#ffacac" data-original="#ffaeac" style="" class=""/>
      <path d="m384.533 238.867h-257.066c-8.284 0-15-6.716-15-15v-64.267c0-8.284 6.716-15 15-15h257.066c8.284 0 15 6.716 15 15v64.267c0 8.284-6.716 15-15 15z" fill="#fff9fb" data-original="#fff9fb" style=""/>
      <path d="m399.533 223.867v-64.267c0-8.284-6.716-15-15-15h-128.549v94.267h128.549c8.284 0 15-6.716 15-15z" fill="#f0edf0" data-original="#f0edf0" style=""/>
    </g>
  </g>
</svg>
