<svg id="Capa_1" enable-background="new 0 0 511.948 511.948" height="512" viewBox="0 0 511.948 511.948" width="512" xmlns="http://www.w3.org/2000/svg" xmlns:xlink="http://www.w3.org/1999/xlink"><linearGradient id="SVGID_1_" gradientUnits="userSpaceOnUse" x1="255.974" x2="255.974" y1="465.948" y2="0"><stop offset="0" stop-color="#5558fd"/><stop offset="1" stop-color="#03befd"/></linearGradient><linearGradient id="SVGID_2_" gradientUnits="userSpaceOnUse" x1="255.934" x2="255.934" y1="361.614" y2="60.948"><stop offset="0" stop-color="#abdafd"/><stop offset=".5028" stop-color="#e8f4ff"/><stop offset="1" stop-color="#e8f4ff"/></linearGradient><g><g><g><path d="m498.436 174.947c-7.8-23.399-34.604-35.099-59.202-26.999-10.747 3.757-23.334 3.916-34.2.899-20.098-5.4-36.599-21.899-41.997-41.999-3.003-11.7-2.703-23.101.897-34.2 8.101-24.901-3.6-51.4-27.001-59.5-41.396-13.801-84.899-16.8-128.701-8.699-109.798 20.399-195.4 113.199-206.796 224.498-7.8 75.601 18.399 148.801 69.998 203.101l184.501 33.9 184.501-33.9c33.3-34.799 57.7-79.2 66.999-128.399 8.099-43.801 5.1-87.302-8.999-128.702zm-242.502 186.001c-57.898 0-105-47.1-105-105s47.102-105 105-105 105 47.1 105 105-47.102 105-105 105z" fill="url(#SVGID_1_)"/></g></g><g><g><path d="m255.934 435.948c-41.1 0-63.9-30-105-30-31.501 0-52.5 17.999-79.501 26.1 1.501 1.5 2.699 2.701 4.2 4.2 48.3 48.3 112.8 75.7 180.601 75.7 69.335 0 135.891-29.46 184.2-79.9-27.001-8.101-47.699-26.1-79.501-26.1-41.099 0-63.899 30-104.999 30zm0-315c8.291 0 15-6.709 15-15v-30c0-8.291-6.709-15-15-15s-15 6.709-15 15v30c0 8.291 6.709 15 15 15zm-150 180c-8.291 0-15 6.709-15 15v30c0 8.291 6.709 15 15 15s15-6.709 15-15v-30c0-8.291-6.709-15-15-15zm340.606-55.606c-5.859-5.859-15.352-5.859-21.211 0l-30 30c-5.859 5.859-5.859 15.352 0 21.211 5.86 5.86 15.352 5.859 21.211 0l30-30c5.859-5.859 5.859-15.351 0-21.211zm-300-98.789 30-30c5.859-5.859 5.859-15.352 0-21.211s-15.352-5.859-21.211 0l-30 30c-5.859 5.859-5.859 15.352 0 21.211 5.859 5.86 15.352 5.859 21.211 0zm-40.606 94.395c8.291 0 15-6.709 15-15s-6.709-15-15-15h-30c-8.291 0-15 6.709-15 15s6.709 15 15 15z" fill="url(#SVGID_2_)"/></g></g></g></svg>